/* XPM */
static char *b96609a9fc7e4443eefd217164d3e6e3tLc4QlziQzA2NHG7[] = {
/* columns rows colors chars-per-pixel */
"64 64 46 1 ",
"  c None",
". c #563C0D",
"X c #593F0F",
"o c #5E4312",
"O c #614615",
"+ c #644917",
"@ c #644918",
"# c #6A4E1B",
"$ c #6A4E1C",
"% c #6E511E",
"& c #6E521F",
"* c #6F521F",
"= c #725521",
"- c #725522",
"; c #735622",
": c #745723",
"> c #755824",
", c #765824",
"< c #785B26",
"1 c #795B26",
"2 c #795C27",
"3 c #7A5C27",
"4 c #7B5D28",
"5 c #7C5E29",
"6 c #7F612B",
"7 c #7F612C",
"8 c #494949",
"9 c #4E4E4E",
"0 c gray34",
"q c #606060",
"w c gray39",
"e c #686868",
"r c DimGray",
"t c #80622C",
"y c #81632D",
"u c #82632D",
"i c #83642E",
"p c #83652E",
"a c #84652F",
"s c #84662F",
"d c #85662F",
"f c #856630",
"g c #856730",
"h c #866730",
"j c #866731",
"k c #876831",
/* pixels */
"                                                                ",
"                                                                ",
"                                                                ",
"                                                                ",
"                                                                ",
"                                                                ",
"                                                                ",
"                                                                ",
"                                                                ",
"                                                                ",
"                                                                ",
"                                                                ",
"                                                                ",
"                                                                ",
"                                                                ",
"                                                                ",
"                                                                ",
"                                                                ",
"                                                                ",
"                                                                ",
"                                                                ",
"            8888888888888888888888888888888888888888            ",
"            8888888888888888888888888888888888888888            ",
"            8888888888888888888888888888888888888888            ",
"            8888888888888888888888888888888888888888            ",
"            8888888888888888888888888888888888888888            ",
"            8qrrrrrrrrrrrrrrrrrrrrrrr088888888888888            ",
"            8888888888888888888888888888888888888888            ",
"             ...55........t=.............i.........             ",
"             ...55...t....i;.............k.........             ",
"             ...26...k....i;....XX.......k.........             ",
"             ...54...k....i;....11.......k.........             ",
"             ...i&...k....i;....45.......k.........             ",
"             ...g&...k....i;....55.......k.........             ",
"             ...k....k....g$....55.......k.........             ",
"             ...k....k....ko....55......:k.....XX..             ",
"             ..@i....k....k.....55......hk.....52..             ",
"             ..#g....k...ok.....55......i:.....t&..             ",
"            8888888888888888888888888888888888888888            ",
"            8888888888888888888888888888888888888888            ",
"            8888888888888888888888888888888888888888            ",
"            8888888888888888888888888888888888888888            ",
"            8888888888888888888888888888888888888888            ",
"            9rrrrrrrrrrrrreerrrrrrrrrr98888888888888            ",
"            8888888888888888888888888888888888888888            ",
"             ........k...k....kO55.......k.....k...             ",
"             ........k..Ok....h@55.......k.....k...             ",
"             ........k..%i....h@55.......k.....k...             ",
"             ........k..,i....g+55.....@.k.....k...             ",
"             ........k..&i....g+55.....k.k.....k...             ",
"             ........k..&i....k@55.....k.k.....k...             ",
"             ........k..&i....k@::.....k.7.....k...             ",
"             ........k..&s....sO.......k.......k...             ",
"             ...o4...2..&i....k+.......k.......k...             ",
"             ...oh......O>....g+.......ho......k...             ",
"             ...oh............g+.......k.......k...             ",
"             ...oh............,........kX......k...             ",
"            8888888888888888888888888888888888888888            ",
"            8888888888888888888888888888888888888888            ",
"            8888888888888888888888888888888888888888            ",
"            8888888888888888888888888888888888888888            ",
"            8888888888888888888888888888888888888888            ",
"            8888888888888888888888888888888888888888            ",
"            8rrrrrrrrrrrrrrrrrrrrrrrrrrrrrrq88888888            "
};
