/* XPM */
static char *b6d6e146dabb4b73ae33f04d9f95ef81K0VpS66rvt5H6r56[] = {
/* columns rows colors chars-per-pixel */
"64 64 3 1 ",
"  c None",
". c #311634",
"X c white",
/* pixels */
"                                                                ",
"                                                                ",
"                                                                ",
"                                                                ",
"                                                                ",
"                                                                ",
"                                                                ",
"                                                                ",
"                                                                ",
"                                                                ",
"                                                                ",
"                                                                ",
"                                                                ",
"                                                                ",
"                                                                ",
"                                                                ",
"                                                                ",
"                                                                ",
"                                                                ",
"                                                                ",
"                                                                ",
"                                                                ",
"                                                                ",
"                                                                ",
"                                                                ",
"                                                                ",
"                                                                ",
"                                                                ",
"                                                                ",
"                                                                ",
"                                                                ",
"                                                                ",
"                                                                ",
"                                                                ",
"                                                                ",
"                                                                ",
"                                 ..........                     ",
"                              ....XXXXXXXX.....                 ",
"                           ....XXXXXXXXXXXXXXXX..               ",
"     ..                  ...XXXXXXXXXXXXXXXXXXXXX.              ",
"     .....            ...XXXXXXXX.XXXXXXXXXXXXXXXX..            ",
"       ................XXXXXXX.XXXXXXXXXXXXXXXXXXXXX.           ",
"         ..XXXXXXXXXXXXXXX.....XXXXXXXXXXXXXXXXXXXXXX..         ",
"          .....XXXXXXX..... .XXXXXXXXXXXX.XXXXXXXXXXXX.         ",
"              .........    .XXXXXXXXXXXXXXXXXXXXXXXXXXX.        ",
"                           .XXXXXXXXXXXXXXXXXXXXXXXXXXX..       ",
"                          .XXXXXXXXXXXXXXXXXXXXXXXXXXXXX.       ",
"                         ..XXXXXXXXXXXXXXXXXXXXXXXXXXXXX.       ",
"                         .XXXXXXXXXXXXXXXX.XXXXXXXXXXXXX.       ",
"                         .XXXXXXXXXXXXXXXX.XXX.XXXXXXXXX.       ",
"                        .XXXXXXXXXXXXXXXXXX.XX.XXXXXXXXX.       ",
"                        .XXXXXXXXXXXXXXXXXX.XX.XXXXXXXX..       ",
"                        .XXXXXXXXXXXXXXXXXXX..XXXXXXXXX.        ",
"                        .XXXXXXXXXXXXXXXXXXXXXXXXXXXXX.         ",
"                        ..XXXXXXXXXXXXXXXXXXXXXXXXXXXX.         ",
"                          ..XXXXXXXXXXXXXXXXXXXXXXXX..          ",
"                           ..XXXXXXXXXXXXXXXXXXXXXX.            ",
"                             ..XXXXXXXXXXXXX.XXXX..             ",
"                             . ....XXXXXXXXX.....               ",
"                             .    ...........                   ",
"                             .              .                   ",
"                             .              .                   ",
"                             .              .                   ",
"                           ...             ..                   "
};
