/* XPM */
static char *_1bf95e27f5d485d874ed4a724cdb1506kTYZV8R3nehupvK[] = {
/* columns rows colors chars-per-pixel */
"64 64 188 2 ",
"   c None",
".  c #0B1E39",
"X  c #0B2D5B",
"o  c #082755",
"O  c #122B55",
"+  c #1B3056",
"@  c #242E52",
"#  c #282F54",
"$  c #243155",
"%  c #2D3455",
"&  c #2C355C",
"*  c #2C395E",
"=  c #323759",
"-  c #333A5C",
";  c #303657",
":  c #0A3B65",
">  c #103462",
",  c #2C3B63",
"<  c #243561",
"1  c #313C64",
"2  c #323E6C",
"3  c #06497A",
"4  c #1F4D7B",
"5  c #29436A",
"6  c #3B4465",
"7  c #34436C",
"8  c #3D466C",
"9  c #37486E",
"0  c #2F4875",
"q  c #3B4A74",
"w  c #384B77",
"e  c #2C547F",
"r  c #3C537B",
"t  c #434866",
"y  c #4A4F6D",
"u  c #404768",
"i  c #414F7B",
"p  c #4C5574",
"a  c #43527C",
"s  c #515778",
"d  c #5A637B",
"f  c #18598A",
"g  c #1A5B92",
"h  c #3E4E81",
"j  c #265B8A",
"k  c #2C5987",
"l  c #3B5483",
"z  c #3D5B85",
"x  c #3F588C",
"c  c #2F5C90",
"v  c #3E5D92",
"b  c #1B6398",
"n  c #24679E",
"m  c #2F6696",
"M  c #3A6494",
"N  c #34649B",
"B  c #3A6A9B",
"V  c #0D65A0",
"C  c #186BA4",
"Z  c #0F71AE",
"A  c #0978B7",
"S  c #1B7BB7",
"D  c #286BA3",
"F  c #336EA0",
"G  c #3670A5",
"H  c #3975AA",
"J  c #2C7EB7",
"K  c #257DB9",
"L  c #2F7FB9",
"P  c #387FB7",
"I  c #425384",
"U  c #445B8F",
"Y  c #485A8F",
"T  c #4B5F94",
"R  c #4B678B",
"E  c #596688",
"W  c #5B6484",
"Q  c #4A6C9E",
"!  c #526893",
"~  c #4E719D",
"^  c #616783",
"/  c #636A86",
"(  c #656E89",
")  c #6B748D",
"_  c #74798E",
"`  c #747A93",
"'  c #4576AA",
"]  c #547AA4",
"[  c #2C80BB",
"{  c #3482BB",
"}  c #3C84BB",
"|  c #3985BB",
" . c #7E8295",
".. c #4286BB",
"X. c #4488BE",
"o. c #498ABE",
"O. c #4B85B6",
"+. c #578EBE",
"@. c #0F82C2",
"#. c #1483C2",
"$. c #1D85C2",
"%. c #1E8ECD",
"&. c #2E8AC5",
"*. c #258DCB",
"=. c #2C8DCA",
"-. c #2D87C2",
";. c #338BC6",
":. c #3C8DC5",
">. c #338ECA",
",. c #388FCA",
"<. c #2590CD",
"1. c #2B90CC",
"2. c #3591CC",
"3. c #3C92CB",
"4. c #458EC4",
"5. c #4C8DC2",
"6. c #518FC2",
"7. c #4590C6",
"8. c #4B91C6",
"9. c #4493CA",
"0. c #4B94C9",
"q. c #4D9ACE",
"w. c #5392C4",
"e. c #5C94C4",
"r. c #5296CA",
"t. c #5499CD",
"y. c #5B9ACB",
"u. c #5997C8",
"i. c #4D9DD0",
"p. c #539ED0",
"a. c #6196C5",
"s. c #639ECD",
"d. c #4AA3D5",
"f. c #54A2D3",
"g. c #5CA7D5",
"h. c #61A0CE",
"j. c #62A4D2",
"k. c #6AA3D0",
"l. c #6AAAD5",
"z. c #66AAD6",
"x. c #70ABD5",
"c. c #7CADD4",
"v. c #7AB4DA",
"b. c #7FB9DD",
"n. c #73B7DD",
"m. c #82889D",
"M. c #8B8FA4",
"N. c #8A94AA",
"B. c #969AAB",
"V. c #9599A8",
"C. c #9BA0AE",
"Z. c #A1A6B5",
"A. c #ABAEBB",
"S. c #80AFD2",
"D. c #8ABDDD",
"F. c #89B6D8",
"G. c #92BEDD",
"H. c #98BFDC",
"J. c #B1B4C1",
"K. c #BABCC8",
"L. c #94C0DF",
"P. c #BEC1CB",
"I. c #AAC4DB",
"U. c #99C5E2",
"Y. c #A2CBE5",
"T. c #A9CCE4",
"R. c #B1CDE3",
"E. c #ADD3E9",
"W. c #ACD1E7",
"Q. c #B5D1E6",
"!. c #B4D4E9",
"~. c #BAD8EB",
"^. c #C8CBD3",
"/. c #D4D6DC",
"(. c #C2DBEC",
"). c #CBDFEE",
"_. c #DBDDE2",
"`. c #D7DBE1",
"'. c #CBE1EF",
"]. c #C4E0EF",
"[. c #CFE3F1",
"{. c #D1E5F2",
"}. c #DBEAF4",
"|. c #D4E8F3",
" X c #E4E5EA",
".X c #E2EEF5",
"XX c #E4F0F7",
"oX c #EEF4F9",
/* pixels */
"                                                                                                                                ",
"                                                                                                                                ",
"                                                                                                                                ",
"                                                                                                                                ",
"                                                                                                                                ",
"                                                                                                                                ",
"                                                                                                                                ",
"                                                                                                                                ",
"                                                                                                                                ",
"                                                                                                                                ",
"                                                                                                                                ",
"                                                                                                                                ",
"                                                                                                                                ",
"                                              ~.Y.U.T.~.].XX                                                                    ",
"                                            k.0.9.9.3.2.2.2.i.U.}.                                                              ",
"                                        }.x.3.3.2.3.2.2.2.1.1.=.1.g.~.                                                          ",
"                                        G.r.t.y.y.p.q.q.i.9.2.=.*.*.<.g.~.                                                      ",
"                                        F.r.t.t.t.p.y.q.t.i.q.9.2.<.%.%.<.n.}.                                                  ",
"                                        T.y.t.u.y.y.p.t.t.0.9.9.7.3.1.%.%.%.d.].                                                ",
"                                        .Xh.t.t.t.y.p.9.0.9.:.,.:.3.3.2.<.%.<.<.E.                                              ",
"                                          H.y.q.t.t.t.t.2.2.-.[ ;.3.7.7.3.<.<.<.2.Y.                                            ",
"                                            k.t.t.t.t.y.7.#.@.$.;.} 4.7.7.9.2.<.1.2.E.                                          ",
"                                            R.r.8.8.8.r.c 3 A #.$.&.:.:.7.7.9.2.<.1.2.|.                                        ",
"                                              S.8.r.r.O.X X | 7.3.:.;.;.:.7.9.9.2.1.1.f.XX                                      ",
"                                              }.s.r.r.v o B 8.r.r.8.r.7.:.:.4.7.9.2.1.=.b.                                      ",
"                                                Q.y.w.0 > o.w.8.8.8.8.8.8.0.:.4.7.9.1.=.3.[.                                    ",
"                                                  F.+.< 4 r.w.6.5.5.7.4.8.8.8.7.7.7.3.*.1.z.                                    ",
"                                                  XX! O m r.w.o.5.5.4.7.7.4.9.0.7.7.7.=.1.2.|.                                  ",
"                                                   Xp + F 0.8.8.o.o.5.5.4.4.8.0.0.4.8.3.=.=.b.                                  ",
"                                                  V.& ; k 7.8.o.o.o.X.o.4.8.4.7.9.0.8.0.=.1.i.}.                                ",
"                                                  y $ = 6 G 4.o.o...o.o.5.4.8.4.8.0.0.0.,.=.2.E.                                ",
"                                                /.- % /  .z } ..X.o...X.X.5.5.8.4.4.0.0.9.>.2.z.                                ",
"                                                J.- -     / Q } } ......o.o.5.5.8.4.8.0.0.>.2.3.[.                              ",
"                                                A.6 _     A.E G { { P ....o.5.5.w.8.8.0.0.9.>.>.D.                              ",
"                                                K.s A.      m.a G L { } ..X.5.5.5.5.5.5.0.q.>.3.p.                              ",
"                                                /.^ _.        ) q D J L } ..o.5.5.6.8.8.8.t.>.>.,.[.                            ",
"                                                  ` /.        ^.d 7 n [ J | X.5.5.5.5.8.w.t.9.>.>.v.                            ",
"                                                  J.B.          ^.d 5 n K J L 4.5.5.6.6.w.r.p.>.2.9.XX                          ",
"                                                   Xp C.          Z.d - D J P :.5.5.5.6.6.r.y.2.>.>.Q.                          ",
"                                                    V.$ _ _.        B.s < n K | 5.4.6.6.w.w.r.9.>.>.l.                          ",
"                                                      ) @ 6 Z.        ( ; = N L :.5.5.5.6.w.e.t.=.>.3.{.                        ",
"                                                       Xd * $ W `.    I.r # , N } X.5.6.6.e.e.u.>.;.,.G.                        ",
"                                                          M.q 7 1 N.    a.l % & U P 5.6.w.e.e.e.:.;.;.j.                        ",
"                                                            K.W I I E P.Q.{ k @ 7 U ' 5.6.e.e.e.r.=.;.:.~.                      ",
"                                                              /.` a ! T N.O.S j % 2 U Q +.e.e.a.u.;.&.;.l.                      ",
"                                                                  J.y a U U F Z b 2 q h i ~ a.a.a.:.=.;.,.[.                    ",
"                                                                      M.t q I c V C w 7 2 1 q ] O.H =.=.>.D.                    ",
"                                                                        _.` t & 0 g { B 2 & - u 0 : K =.>.q.XX                  ",
"                                                                            /.! * $ e :...z 8 8 6 . b <.=.>.Y.                  ",
"                                                                              T.[ V f 7.9.r.e.] I 5 j =.=.;.j.                  ",
"                                                                                j.=.;.3.9.0.u.s.s.w.w.3.=.>.3.[.                ",
"                                                                                Q.9.>.,.9.0.r.y.y.y.y.q.=.=.2.D.                ",
"                                                                                  j.2.&.3.9.0.t.y.s.y.u.;.2.2.i.                ",
"                                                                                  Q.9.1.;.3.0.r.e.s.y.y.3.=.2.3.(.              ",
"                                                                                    g.&.=.>.9.0.r.y.s.y.t.&.2.2.v.              ",
"                                                                                    ~.2.=.2.3.9.r.t.y.y.y.3.=.2.p.              ",
"                                                                                      x.*.=.;.9.0.r.y.y.u.t.>.2.3.).            ",
"                                                                                      }.q.*.*.2.9.t.u.u.y.y.;.;.9.).            ",
"                                                                                        (.i.=.=.2.9.0.r.y.y.7.:.c.oX            ",
"                                                                                          [.p.2.=.3.9.8.t.y.u.y.}.              ",
"                                                                                              L.9.2.9.9.r.y.u.(.                ",
"                                                                                                .XL.x.s.k.c.(.                  ",
"                                                                                                                                ",
"                                                                                                                                "
};
