/* XPM */
static char *_4a8dbd9ca9a4d95b4167fc0c987b57bJJ1wGm0MDFeljDBX[] = {
/* columns rows colors chars-per-pixel */
"64 64 98 2 ",
"   c None",
".  c #2F1532",
"X  c #2F1533",
"o  c #301433",
"O  c #311433",
"+  c #301533",
"@  c #311533",
"#  c #301632",
"$  c #301633",
"%  c #311633",
"&  c #371733",
"*  c #301534",
"=  c #311534",
"-  c #321534",
";  c #331534",
":  c #321535",
">  c #301634",
",  c #311634",
"<  c #321634",
"1  c #331634",
"2  c #321635",
"3  c #331635",
"4  c #321735",
"5  c #331735",
"6  c #351634",
"7  c #341734",
"8  c #341735",
"9  c #341736",
"0  c #321835",
"q  c #331835",
"w  c #331836",
"e  c #331936",
"r  c #341937",
"t  c #351937",
"y  c #341A37",
"u  c #341B37",
"i  c #351A38",
"p  c #351B38",
"a  c #361B38",
"s  c #361B39",
"d  c #351C38",
"f  c #361C39",
"g  c #371D3A",
"h  c #381E3B",
"j  c #3B223D",
"k  c #3B223E",
"l  c #3C223F",
"z  c #3D233F",
"x  c #411936",
"c  c #3D2440",
"v  c #3E2541",
"b  c #3F2743",
"n  c #402742",
"m  c #402744",
"M  c #442B47",
"N  c #452C47",
"B  c #462D48",
"V  c #4B334D",
"C  c #4B344E",
"Z  c #523C55",
"A  c #564059",
"S  c #624D63",
"D  c #655167",
"F  c #D4252A",
"G  c #EC2727",
"H  c #E92829",
"J  c #ED2828",
"K  c #ED2929",
"L  c #EE2828",
"P  c #EE2929",
"I  c #EF2929",
"U  c #F02929",
"Y  c #F02A2A",
"T  c #CEC8D0",
"R  c #DFDBDF",
"E  c #E3E0E4",
"W  c #E5E2E6",
"Q  c #E7E3E7",
"!  c #E7E4E7",
"~  c #E7E4E8",
"^  c #E8E4E8",
"/  c #EBE9EC",
"(  c #EDEBEE",
")  c #EEECEF",
"_  c #EFEDF0",
"`  c #F3F1F3",
"'  c #F5F4F5",
"]  c #F6F5F6",
"[  c #F6F5F7",
"{  c #F7F6F7",
"}  c #F8F8F8",
"|  c #F9F9F9",
" . c #FBFAFB",
".. c gray99",
"X. c #FDFCFD",
"o. c #FDFDFD",
"O. c #FEFEFE",
"+. c white",
/* pixels */
"                                                                                                                                ",
"                                                                                                                                ",
"                                                                                                                                ",
"                                                                                                                                ",
"                                                                                                                                ",
"                                                                                                                                ",
"                                                                                                                                ",
"                                                                                                                                ",
"                                                                                                                                ",
"                                                                                                                                ",
"                                                                                                                                ",
"                                                                                                                                ",
"                                                                                                                                ",
"                                                                                                                                ",
"                                                                                                                                ",
"                                                                                                                                ",
"                                                                                                                                ",
"                                                                                                                                ",
"                                                                                                                                ",
"                                                                                                                                ",
"                                                                                                                                ",
"                                                                                                                                ",
"                                                                                                                                ",
"                                                                                                                                ",
"                                                                                                                                ",
"                                                                                                                                ",
"                                                                                                                                ",
"                                                                                                                                ",
"                                                                                                                                ",
"                                                                                                                                ",
"                                                                                                                                ",
"                                                                                                                                ",
"                                                                                                                                ",
"                                                                                                                                ",
"                                                                                                                                ",
"                                                                                                                                ",
"                                                                                                                                ",
"                                                                                                                                ",
"                                                                                                                                ",
"                                                                                                                                ",
"                                                                                                                                ",
"                                                                                                                                ",
"                                                                                                                                ",
"                                                                                                                                ",
"                                                                                                                                ",
"                                                                                                                                ",
"                                                                                                                                ",
"                                                                                X + + + + + + + + 1 + + + 1                     ",
"                                                                            . o j ..+.+.+.+.+.+.+.+.+.+.| g + 4                 ",
"                                                                        + O m +.+.+.+.+.+.+.+.+.+.+.+.+.+.+.| 4 + +             ",
"                                                                      0 j { +.+.+.+.+.+.+.+.+.+.+.+.+.+.+.+.+.+.] + +           ",
"                                                                    4 Q +.+.+.+.+.+.+.+.+.+.+.+.+.+.+.+.+.+.+.+.+.+.4           ",
"                                                                  4 E +.+.+.+.+.+.+.+.+.+.+.+.+.+.+.+.+.+.+.+.+.+.+.Q 4         ",
"                                              + + + + + + + + + 0 ` +.+.+.+.+.+.+.+.+.+.+.+.+.+.+.+.+.+.+.+.+.+.+.+.+.g 4       ",
"                                            + +.+.+.+.+.+.+.+.+.+.+.+.+.+.+.+.+.+.+.+.+.+.+.+.+.+.+.+.+.+.! g Z +.+.+.] +       ",
"                                        + + + T + +.| +.+.+.+.+.+.+.+.+.+.+.+.+.+.+.+.+.+.+.+.+.+.+.+.+.R g N z +.+.+.+.+       ",
"                                    4 + c ) +.X _ j a h M +.+.X +.X +.+.+.+.+.+.+.+.+.+.+.+.+.+.+.+.+.( c A ] a +.+.+.] X       ",
"              X + + + + + + + + o 4 y Q +.+.g ! X S +.` c D +.+.+ +.+.+.+.+.+.+.+.+.+.+.+.+.+.+.+.+.+.V B +.+.y +.+.+.a +       ",
"    + + + X X 0 _ +.+.+.+.+.+.+.+.+.+.+.+.] a + 4 o V +.( Q +.4 +.. +.+.+.+.+.+.+.+.) ( +.+.+.+.+.+./ 4 +.+.+.n ] ..y +         ",
"        X 4 4 + + + 4 + 4 + + + 4 + + + + + 4       4 +.+.+.+.] h 4 4 4 4 6 6 4 6 x + + 4 + 4 6 6 + + 4 6 4 + X X +             ",
"                                                      + 4 y g 4 4       Y Y Y U I + H Y Y Y Y Y I + X F Y Y Y Y                 ",
"                                                                      G Y U I G I & I             4       Y Y Y Y               ",
"                                                                      I Y         + X 4 + 4 4                                   ",
"                                                                                            +                                   "
};
