/* XPM */
static char *_95c0dcbd0f54aaa87fcc754b40bf8e6B5tk6uzMNdpT5SEn[] = {
/* columns rows colors chars-per-pixel */
"64 64 163 2 ",
"   c None",
".  c #49133F",
"X  c #4A133F",
"o  c #4F133D",
"O  c #4C133E",
"+  c #4D133E",
"@  c #4E133E",
"#  c #54123B",
"$  c #50123D",
"%  c #53123C",
"&  c #780E2F",
"*  c #7A0E2E",
"=  c #7C0E2D",
"-  c #6B0F33",
";  c #720E31",
":  c #740E30",
">  c #750E30",
",  c #601137",
"<  c #611137",
"1  c #641036",
"2  c #6A1034",
"3  c #1F174E",
"4  c #27174B",
"5  c #20164C",
"6  c #20174C",
"7  c #20174D",
"8  c #21174D",
"9  c #22174D",
"0  c #23174D",
"q  c #21164E",
"w  c #20174E",
"e  c #21174E",
"r  c #24174C",
"t  c #25174C",
"y  c #26174C",
"u  c #29164A",
"i  c #29174A",
"p  c #29164B",
"a  c #28174B",
"s  c #2A164A",
"d  c #2B164A",
"f  c #2A164B",
"g  c #2D1649",
"h  c #2E1648",
"j  c #2F1648",
"k  c #2E1649",
"l  c #2C164A",
"z  c #20184D",
"x  c #21184D",
"c  c #20184E",
"v  c #21184E",
"b  c #321647",
"n  c #331647",
"m  c #351546",
"M  c #341547",
"N  c #3E1443",
"B  c #3F1443",
"V  c #391545",
"C  c #3B1544",
"Z  c #3A1545",
"A  c #3C1444",
"S  c #301648",
"D  c #311648",
"F  c #471340",
"G  c #401442",
"H  c #411442",
"J  c #421442",
"K  c #481340",
"L  c #A6091F",
"P  c #A9091D",
"I  c #AE081C",
"U  c #BB0717",
"Y  c #BC0616",
"T  c #BC0717",
"R  c #B50719",
"E  c #B60719",
"W  c #B90718",
"Q  c #BA0718",
"!  c #B0081B",
"~  c #B4081A",
"^  c #B5081A",
"/  c #8E0C27",
"(  c #820D2B",
")  c #870C29",
"_  c #850D2A",
"`  c #840D2B",
"'  c #800D2C",
"]  c #810D2C",
"[  c #8A0C28",
"{  c #8B0C28",
"}  c #8C0C28",
"|  c #930B25",
" . c #900B26",
".. c #970B24",
"X. c #9A0A23",
"o. c #9D0921",
"O. c #9E0A21",
"+. c #A20920",
"@. c #A30920",
"#. c #A10A20",
"$. c #A00A21",
"%. c #DD030B",
"&. c #DF030B",
"*. c #DC030C",
"=. c #D8040D",
"-. c #C10615",
";. c #C20615",
":. c #C00616",
">. c #C40614",
",. c #C90512",
"<. c #CC0511",
"1. c #CF0510",
"2. c #D00410",
"3. c #E80207",
"4. c #EA0207",
"5. c #EE0105",
"6. c #ED0106",
"7. c #E1030A",
"8. c #E40209",
"9. c #F60003",
"0. c #F10104",
"q. c #FA0001",
"w. c red",
"e. c #FF0303",
"r. c #FF0606",
"t. c #FF0D0D",
"y. c #FF1414",
"u. c #FF1818",
"i. c #FF1A1A",
"p. c #FF1B1B",
"a. c #FF2222",
"s. c #FF3030",
"d. c #FF3636",
"f. c #FF3939",
"g. c #FF3F3F",
"h. c #FF4747",
"j. c #FF4949",
"k. c #FF4C4C",
"l. c #FF5252",
"z. c #FF5858",
"x. c #FF5F5F",
"c. c #FF6161",
"v. c #FF6363",
"b. c #FF7272",
"n. c #FF7B7B",
"m. c #FF7F7F",
"M. c #FF8585",
"N. c #FF8888",
"B. c #FF8C8C",
"V. c #FF8D8D",
"C. c #FF9292",
"Z. c #FF9494",
"A. c #FF9595",
"S. c #FF9696",
"D. c #FF9898",
"F. c #FFA1A1",
"G. c #FFA2A2",
"H. c #FFA3A3",
"J. c #FFA6A6",
"K. c #FFA8A8",
"L. c #FFA9A9",
"P. c #FFAAAA",
"I. c #FFABAB",
/* pixels */
"                                                                                                                                ",
"                                                                                                                                ",
"                                                                                                                                ",
"                                                                                                                                ",
"                                                                                                                                ",
"                                                                                                                                ",
"                                                                                                                                ",
"                                                                                                                                ",
"                                                                                                                                ",
"                                                                                                                                ",
"                                                                                                                                ",
"                                                                                                                                ",
"                                                                                                                                ",
"                                                                                                                                ",
"                                                                                                                                ",
"                                                                                                                                ",
"                                    e v v e v v v z                                                                             ",
"                                e z v v v v v v v v e e                                                                         ",
"                            e e z v v v v v v v v v z e z                                 e                                     ",
"                          v e e v v v v v v v v v v v v z v                     0 z z z e z v v                                 ",
"                          z v v v v v z e k a z v v v v v v e             z z v v v v v v v v v z e                             ",
"                        e v v v v v l ..0.w.w.w.| a v v v v z e       v v v v v v v v v v v v v v v                             ",
"                      z z v v v v - w.r.p.a.t.w.w.^ D v v v v v   e e v v v v v v v v v e z v v v v 3                           ",
"                    v e v v v z Z 0.r.f.D.I.b.p.w.w.:.a v v v v e v v v v v v v v v v f A a v v v v z e                         ",
"                    z z v v v D :.w.f.H.I.I.I.v.w.w.q., v v v v z v v v v v v 0 k : ,.w.w.7.G v v v v v                         ",
"                    e z v v v +.w.r.A.I.I.I.I.V.w.w.w.:.0 z v v v v z z v k : W 0.w.w.w.w.w.T e v v v v e                       ",
"                  e z z v v k w.w.u.I.I.I.I.I.l.w.w.w.0.0 0 v v v v v a & 0.w.w.w.w.w.w.w.w.w.1 v v v v z                       ",
"                  e v v v z & w.w.h.I.I.I.I.J.w.w.w.w.w.K v v z v v 0 ^ 9.w.w.w.w.w.w.w.w.w.w.=.v v v v z                       ",
"                  z v v v v &.w.w.N.I.I.I.I.n.w.w.w.w.w.L 4 z z v Z 3.w.w.w.w.w.w.w.w.w.w.w.w.w.M v v v v e                     ",
"                  e v v v 0 q.w.w.J.I.I.I.I.d.w.w.w.w.w.w.I Z H ] 0.w.w.w.w.w.w.w.w.w.w.w.w.w.w.; v v v z e                     ",
"                  e v v v v w.w.w.P.P.I.I.I.t.w.w.w.w.w.w.w.w.w.w.w.w.w.w.w.w.w.w.w.w.w.w.w.w.w.:.z v v v e                     ",
"                  z v v v l w.w.w.P.I.I.I.I.w.w.w.w.w.w.w.w.w.w.w.w.w.w.w.w.w.w.w.w.w.w.w.w.w.w.0.e v v v z                     ",
"                  v v v v k w.w.w.P.I.I.P.P.y.w.w.w.w.w.w.w.w.w.w.w.w.w.w.w.w.w.w.w.w.w.w.w.w.w.w.a v v v v                     ",
"                  v v v v a w.w.w.G.I.I.P.P.h.w.w.w.w.w.w.w.w.w.w.w.3.] | 8.w.w.w.w.w.w.w.w.w.w.w.F v v v v z                   ",
"                  e v v v e 9.w.w.M.I.I.P.P.N.w.w.@.k M =.w.w.w.w.w.o.z z B w.w.w.w.w.w.w.w.w.w.w.% v v v v z                   ",
"                  v v v v v W w.w.j.I.I.P.P.P.r.w.k z z ) w.w.w.w.w.T e z F w.w.w.w.w.w.w.w.w.w.w.K v v v e e                   ",
"                  e z v v v ] w.w.u.P.P.I.I.I.j.w.O z 0 U w.w.w.w.w.w.+.} w.w.w.w.w.w.w.w.w.w.w.w.Z v v v v z                   ",
"                  z v v v v # w.w.w.C.I.I.I.I.A.r.w.*.8.w.w.w.w.w.w.w.w.w.w.w.w.w.w.w.w.w.w.w.w.8.0 v v v v                     ",
"                    v v v v k w.w.w.z.I.I.I.P.P.s.w.w.w.w.w.w.w.w.w.w.w.w.w.w.w.w.w.w.w.w.w.w.w.+.z 0 v v v                     ",
"                    e v v v z 2.w.w.y.G.I.I.I.I.A.w.w.w.w.w.w.w.w.w.w.w.w.w.w.w.w.w.w.w.w.w.w.w.H z v v v z                     ",
"                    z z v v 0 $ w.w.w.c.I.I.I.I.I.l.w.w.w.w.%.8.w.w.+.K I w.w.w.w.w.w.w.w.w.w.3.v v v v v                       ",
"                    e z v v z 0 9.w.w.u.D.I.I.I.P.N.w.w.w.w.Z X w.w.X.0 B 4.w.w.w.w.w.w.w.w.w.[ v v v v e                       ",
"                      e v v v v [ w.w.w.j.G.I.I.I.c.w.w.w.w.d D w.w.w.m 0 <.w.w.w.w.w.w.w.w.9.l v v v v e                       ",
"                      v v v v v m w.w.w.r.f.M.I.M.t.w.w.w.w.M 0 P w.:.f d %.w.w.w.w.w.w.w.w.I z v v 0 z                         ",
"                        v v v v z / w.w.w.w.w.w.w.w.w.w.w.w.= 0 0 b z 0 ) w.w.w.w.w.w.w.w.4.M v v v v z                         ",
"                        e v v v z 0 ^ w.w.w.w.w.w.w.w.w.w.w.w.W K b B ] 0.w.w.w.w.w.w.w.5.2 v v v v v v                         ",
"                          z z v z v d +.w.w.w.w.w.w.w.w.w.w.w.w.w.w.w.w.w.w.w.w.w.w.w.9.+.z z v v z e                           ",
"                          e e v v v z 0 [ 9.w.w.w.w.w.w.w.w.w.w.w.w.w.w.w.w.w.w.w.w.w.W a z z v v e                             ",
"                            e z v v v v e , 9.w.w.w.w.w.w.w.w.w.w.w.w.w.w.w.w.w.w.w.>.a v v v v v e                             ",
"                              e v v v v 0 z K w.w.w.w.w.w.w.w.w.w.w.w.w.w.w.w.w.w.2.D v v v v v e                               ",
"                                e z v v v v v D [ 9.w.w.w.w.w.w.w.w.w.w.w.w.w.6.` a v v v v v v                                 ",
"                                  v v z v v v v z D ` 8.w.w.w.w.w.w.w.w.w.w.2.# z e v v v v z                                   ",
"                                    v e v v v v v v v D o.0.w.w.w.w.w.9.:.K 0 v v v v v z e                                     ",
"                                      e e v v v v v v v z % ! 6.*.= K a v v 0 v v v v v z                                       ",
"                                          z z v v v v v v v v z v v z v v v v v v z e z                                         ",
"                                              z v v v v v v v v v v v v v v v z e e                                             ",
"                                                  e v v v v v v v v v v v v v v e                                               ",
"                                                    e z e v v v v v v e v z                                                     ",
"                                                        e z z v v v e                                                           ",
"                                                            e e                                                                 ",
"                                                                                                                                ",
"                                                                                                                                ",
"                                                                                                                                ",
"                                                                                                                                "
};
