/* XPM */
static char *a4944324e9884aef9cab18c8db330bfczvXJCc4qP7ApH9kl[] = {
/* columns rows colors chars-per-pixel */
"64 64 198 2 ",
"   c #1F6D07",
".  c #00790A",
"X  c #B7CB26",
"o  c #A9C524",
"O  c #8AB71F",
"+  c #2B8C10",
"@  c #559F17",
"#  c #81B31E",
"$  c #328F11",
"%  c #4F9D16",
"&  c #E1DE2C",
"*  c #3B9313",
"=  c #DEDD2C",
"-  c #DDDD2C",
";  c #4E9C16",
":  c #007809",
">  c #24890F",
",  c #A4C323",
"<  c #087D0B",
"1  c #9CBF22",
"2  c #83B41E",
"3  c #7AB01C",
"4  c #017809",
"5  c #1B850E",
"6  c #D4D92A",
"7  c #88B61F",
"8  c #117208",
"9  c #BACD26",
"0  c #C9D329",
"q  c #047709",
"w  c #E2DF2D",
"e  c #067609",
"r  c #97BD21",
"t  c #21880F",
"y  c #0B7408",
"u  c #226C06",
"i  c #1E6D07",
"p  c #92BB20",
"a  c #489915",
"s  c #C1D027",
"d  c #0B7409",
"f  c #057709",
"g  c #197007",
"h  c #754F00",
"j  c #AFC825",
"k  c #ABC624",
"l  c #077609",
"z  c #6B5201",
"x  c #027709",
"c  c #794E00",
"v  c #339011",
"b  c #E0DE2C",
"n  c #196F07",
"m  c #027809",
"M  c #565A02",
"N  c #366505",
"B  c #037709",
"V  c #017709",
"C  c #3C6304",
"Z  c #256B06",
"A  c #1E6E07",
"S  c #665401",
"D  c #3D6304",
"F  c #74AD1C",
"G  c #0D7408",
"H  c #744F00",
"J  c #2E6806",
"K  c #057609",
"L  c #475F04",
"P  c #1C6E07",
"I  c #406104",
"U  c #087609",
"Y  c #9ABE21",
"T  c #0F7308",
"R  c #6A5301",
"E  c #436104",
"W  c #6C5100",
"Q  c #3A6405",
"!  c #097509",
"~  c #515C03",
"^  c #595902",
"/  c #2F6706",
"(  c #1B6F07",
")  c #0A7509",
"_  c #4A5E03",
"`  c #107308",
"'  c #0A7508",
"]  c #4E5D03",
"[  c #715000",
"{  c #137108",
"}  c #645501",
"|  c #725000",
" . c #4D5D03",
".. c #147108",
"X. c #5C5802",
"o. c #6F5100",
"O. c #246C07",
"+. c #456004",
"@. c #685301",
"#. c #2D6806",
"$. c #545A03",
"%. c #2E6805",
"&. c #236C06",
"*. c #764E00",
"=. c #6E5100",
"-. c #5E5702",
";. c #515B03",
":. c #5D5702",
">. c #6D5200",
",. c #446004",
"<. c #7A4F01",
"1. c #7F5404",
"2. c #815506",
"3. c #7E5203",
"4. c #7C5002",
"5. c #7D5103",
"6. c #7A4F00",
"7. c #845707",
"8. c #8D600E",
"9. c #8F610F",
"0. c #8D5F0D",
"q. c #855908",
"w. c #7D5102",
"e. c #8D5F0E",
"r. c #8E600E",
"t. c #865909",
"y. c #825606",
"u. c #885B0A",
"i. c #8B5D0C",
"p. c #8C5F0D",
"a. c #7F5304",
"s. c #885A0A",
"d. c #7C5102",
"f. c #835607",
"g. c #805405",
"h. c #8A5C0B",
"j. c #835606",
"k. c #7B4F01",
"l. c #805404",
"z. c #8A5D0B",
"x. c #7D5203",
"c. c #895C0B",
"v. c #815405",
"b. c #825506",
"n. c #875A0A",
"m. c #835707",
"M. c #895B0A",
"N. c #8C5E0D",
"B. c #855808",
"V. c #8A5D0C",
"C. c #875A09",
"Z. c #845808",
"A. c #8B5E0C",
"S. c #613D0D",
"D. c #543614",
"F. c #492E1B",
"G. c #1A0F36",
"H. c #2C1B2B",
"J. c #3E2621",
"K. c #6D4506",
"L. c #311F28",
"P. c #432A1E",
"I. c #25172F",
"U. c #201332",
"Y. c #724903",
"T. c #613E0D",
"R. c #553614",
"E. c #714C18",
"W. c #875B11",
"Q. c #6B471A",
"!. c #6A471B",
"~. c #764C06",
"^. c #66410A",
"/. c #5C3A10",
"(. c #2C1B2C",
"). c #4C3224",
"_. c #211433",
"`. c #301E2F",
"'. c #3E282A",
"]. c #5B3A11",
"[. c #3D2621",
"{. c #4F3217",
"}. c #261730",
"|. c #805613",
" X c #593A18",
".X c #4D311E",
"XX c #4A2E1B",
"oX c #4A2F1C",
"OX c #543723",
"+X c #2F1E2E",
"@X c #372225",
"#X c #533622",
"$X c #7B5002",
"%X c #36232B",
"&X c #372325",
"*X c #724C18",
"=X c #462D27",
"-X c #815505",
/* pixels */
"  . . . . . . . . . . . . . . . . . . . . . . . . . . . . . . . . . . . . . . . . . . . . . . . . . . . . . . . . . . . . . . . ",
". . . . . X o O . . . . . . . . . . . . . . . . . . . . . . . . . . . . . . . . . . . . . . . . . . . . . . . . . . . . + @ # $ ",
". . . . . % & & . . . . . . . . . . . . . . . . . . . . . . . . . . . . . . . . . . . . . . . . . . . . . . . . . . . . * = - ; ",
": . . . . . > , . . . . . . . . . . . . . . . . . . . . . . . < 1 2 . . . . . . . . . . . . . . . . . . . . . . . . . . . * 3 . ",
"4 . . . . . . . . . . . . . . . . . . . . . . . . . . . . . . 5 & 6 . . . . . . . . . . . . . . . . . . . . . . . . . . . . . . ",
". : . . . . . . . . . . . . . . . . . . . . . . . . . . . . . . 7 = . . . . . . . . . . . . . . . . . . . . . . . . . . . . . . ",
": . . . . . . . . . . . . . . . . . . . . . . . . . . . . . . . . . . . . . . . . . . . . . . . . . . . . . . . . . . . . . . . ",
"8 : . . . . . . . . . . . > 9 0 . . . . . . . . . . . . . . . . . . . . . . . . . . . . . . . . . . . . . . . . . . . . . . . . ",
"q : . . . . . . . . . . . > - w . . . . . . . . . . . . . . . . . . . . . . . . . . . . . . . . . . . . . . . . . . . . . . . : ",
": e : . . . . . . . . . . . . r . . . . . . . . . . . . . . . . . . . . . . . . . . . . 0 t . . . . . . . . . . . . . . . . : y ",
"u q i : . . . . . . . . . . . . . . . . . . . . p . . . . . . . . . . . . . . . . . . a w s . . . . . . . . . . . . . : : 4 d f ",
"4 g h 4 : : . . . . . . . . . . . . . . . . . = w . . . . . . . . . . . . . . . . . . . j k . . . . . . . . . . . . .   4 l l z ",
"x c c 4 y 4 4 . . . . . . . . . . . . . . . . v b . . . . . . . . . . . . . . . . . . . . . . . . . . . . . . . : n m : : 4 M c ",
"c c c : N f x q e B V . . . . . . . . . . . . . > . . . . . . . . . . . . . . . . . . . . . . . . . . : . . . . . : . . : g c c ",
"c c c . C Z B f . . : . . . . . . . . . . . . . . . . . . . . . : : . . . . . . . . . . . . . . . : . : . . . : : : 4 A S c c c ",
"c c c . D c : : : . f : . . . . . . . . . . . . . . . . . . . : : . : . . @ F . . . . . . . . . : : : . G H 4 J K B c c c c c c ",
"c c c : C c L P d : I 4 : . . . . . . . . . . . . . . . . . . U : : : . . Y & > . . . . . . . . T : : B c c R H : l c c c c c c ",
"c c c : D c c c c T : C c E . . . . . . . . . . . . . . : m m m 4 W i 4 . . . . . . . . . . . . Q h c S c c c c B ! c c c c c c ",
"c c c . D c c c c c S c c c ~ l . . . . . . . . . . . V Q 4 : : ^ c z / . . . . . . . . . . . ( z c c c c c c c : ) c c c c c c ",
"c c c : D c c c c c c c c c h _ ` . . . . . . . . . ' ] [ B . q c c c z ( 4 . . . . . . . 4 { } c c c c c c c c 4 P c c c c c c ",
"c c c : D c c c c c c c c c c |  .... . . . . . : l X.c c ^ A ( c c c c o._ O.e . . . f   +.@.c c c c c c c c c q #.c c c c c c ",
"c c c . D c c c c c c c c c c c c c $.O.. . . %.&.H c c c c c c c c c c c *.=.-.;. .~ :.>.*.c c c c c c c c c c R H c c c c c c ",
"c c c . D c c c c c c c c c c c c c c c c c c c c c c c c c c c c c c c c c c c c c c c c c c c c c c c c c c c c c c c c c c c ",
"c c c : ,.c c c c c c c c c c c c c c c c c c c c c c c c c c c c c c c c c c c c c c c c c c c c c c c c c c c c c c c c c c c ",
"c c c R H c c c c c c c c c c c c c c c c c c c c c c c c c c c c c c c c c c c c c c c c c c c c c c c c c <.1.2.3.4.5.<.c c c ",
"c c c c c c c c c c c c c c c c c c c c c c c c c c c c c c c c c c c c c c c c c c c c c c c c c c c c c 6.7.8.9.0.0.9.q.4.c c ",
"c c c c c c c c c c c c c c c c c c c c c c c c c c c c c c c c c c c c c c c c c c c c c c c c c c c c c w.e.9.9.9.9.9.r.t.c c ",
"c c c c c c c c c c c c c c c c c c c c c c c c c c c c c c c c c c c c c c c c c c c c c c c c c c c c c y.9.9.9.9.9.9.9.r.y.c ",
"c c c c <.1.2.5.c c c c c c c c c c c c c c c c c c c c c c c c c c c c c c c c c c c c c c c c c c c c c u.9.9.9.9.9.9.9.9.i.c ",
"c c c 6.7.r.9.p.a.c c c c c c c c c c c c c c c c c c c c c c c c c c c c c c c c c c c c c c c c c c c c s.9.9.9.9.9.9.9.9.9.c ",
"c c c d.0.9.9.9.r.i.f.6.c c c c c c c c c c c c c c c c c c c c c c c c c c c c c c c c c c c c c c c c c g.r.9.9.9.9.9.9.9.h.c ",
"c c c d.9.9.9.9.9.9.r.q.<.c c c c c c c c c c c c c c c c c c c c c c c c c c c c c c c c c c c c c c c c c j.r.9.r.e.e.9.u.k.c ",
"c c c <.r.9.9.9.9.9.9.9.3.c c c c c c c c c c c c c c k.h.9.0.t.6.c c c c c c c c c c c c c c c c c c c c c c d.5.k.c c c c c c ",
"c c c c 9.9.9.9.9.9.9.9.l.c c c c c c c c c c c c c c u.9.9.9.r.7.<.c c c c c c c c c c c c c c c c c c c c c c c c c c c c c c ",
"c c c c 9.9.9.9.9.9.9.r.3.c c c c c c c c c c c c g.z.9.9.9.9.9.9.x.c c c c c c c c c c c c c c c c c c c c c c c c c c c c c c ",
"c c c c i.9.9.9.9.9.9.u.6.c c c c c c c c c c g.c.r.9.9.9.9.9.9.9.v.c c c c c c c c c c c c c c c c c c c c c c c c c c c c c c ",
"c c c c b.9.9.9.9.r.i.w.c c c c c c c c c c l.0.9.9.9.9.9.9.9.9.9.n.c c c c c c c c c c c c c c c c c c c c c c c c c c c c c c ",
"c c c c 6.u.9.9.r.h.3.c c c c c c c c c c c c.9.9.9.9.9.9.9.9.9.9.i.c c c c c c c c c c c c c c c c c c c c c c c c c c c c c c ",
"c c c c c c 6.d.d.6.c c c c c c c c c c c c h.9.9.9.9.9.9.9.9.9.9.m.c c c c c c c c c c c M.r.r.e.9.8.t.c c c c c c c c c c c c ",
"c c c c c c c c c c c c c c c c c c c c c c g.r.9.9.9.9.9.r.0.N.m.c c c c c c c c c c m.e.9.9.9.9.9.9.9.l.c c c c c c c c c c c ",
"c c c c c c c c c c c c c c c c c c c c c c c B.r.9.9.9.9.n.c c c c c c c c c c c c m.9.9.9.9.9.9.9.9.9.V.c c c c c c c c c c c ",
"c c c c c c c c c c c c c c c c c c c c c c c c 3.i.r.9.u.d.c c c c c c c c c c c c V.9.9.9.9.9.9.9.9.9.C.c c c c c c c c c c c ",
"c c c c c c c c c c c c c c c c c c c c c c c c c c d.5.k.c c c c c c c c c c c c c u.9.9.9.9.9.9.9.9.9.3.c c c c c c c c c c c ",
"c c c c c c c c c c c c c c c c c c c c c c c c c c c c c c c c c c c c c c c c c c t.9.9.9.9.9.9.9.9.9.d.c c c c c c c c c c c ",
"c c c c c c c c c c c c c c c c c c c c c c c c c c c c c c c c c c c c c c c c c c Z.9.9.9.9.9.9.9.9.r.d.c c c c c c c c c c c ",
"c c c c c c c c c c c c c c c c c c c c c c c c c c c c c c c c c c c c c c c c c c 3.n.9.9.9.9.9.9.9.V.6.c c c c c c c c c c c ",
"c c c c c c c c c c c c c c c c c c c c c c c c c c c c c c c c c c c c c c c c c c c d.Z.u.r.9.9.9.0.l.c c c c c c c c c c c c ",
"c c c c c c c c c c c c c c c c c c c c c c c c c c c c c c c c c c c c c c c c c c c c c c c l.z.h.l.c c c c c c c c c c c c c ",
"c c c c c c c c c c c c c c c c c c c c c c c c c c c c c c c c c c c c c c c c c c c c c c c c c c c c c c c c c c c c c c c c ",
"c c c c c c c c c c c c c c c c c c c c 3.r.9.9.r.g.c c c c c c c c c c c c c c c c c c c c c c c c c c c c c c c c c c c c c c ",
"c c c c c c c c c c c c c c c c c c c <.r.9.9.9.9.9.A.c c c c c c c c c c c c c c S.D.c c c c c c c c c c c c c c c c c c c c c ",
"c c c F.G.G.G.H.J.K.c c c c c c c c c a.9.9.9.9.9.9.9.B.c c c c c c c c c c c c c F.L.c c K.P.L.G.G.c c c c c c c c c c c c c c ",
"c c c F.G.S.S.D.I.U.Y.c c c c c c c c 2.9.9.9.9.9.9.9.r.d.c c c c c c c c c c c c F.L.c c S.L.P.L.G.c c c c c c c c c c c c c c ",
"c c c F.G.c c c S.G.D.c Y.T.R.T.Y.c c 3.N.E.W.W.Q.!.9.9.~.T.R.^.c c c c c K./.T.Y.F.L.c c c c c F.G.c c c c c c c c c c c c c c ",
"c c c F.G.c c c c G.F.^.G.(.L.I.U.S.c c 3.G.)._.`.'.9.!.U.I.L.G.P.c c c ].U.I.(.I.[.L.c c c c c F.G.c c c c c c c c c c c c c c ",
"c c c F.G.c c c {.G.].K.K.c c c [.I.c c c G.}.|.9.9.|.G. Xc c ^.U.].c Y.U.[.c c D.G.L.c c c c c .XG.Z.5.c c c c c c c c c c c c ",
"c c c F.G.XXXXL.G.L.c c c c K.T.{.G.Y.c c G.oXN.9.9.OX+Xa.c c c [.@Xc D.G.Y.c c c (.L.c c c c l.#XG.9.r.C.k.c c c c c c c c c c ",
"c c c F.G.F.F.F.D.c c c [.G.G.G.G.G.S.c c G.S.$XA.9.%XU.L.L.L.L.I.L.c F.U.c c c c [.L.c a.c.8.r.OXG.9.9.r.t.<.c c c c c c c c c ",
"c c c F.G.c c c c c c {.U.S.c c S.G.S.c c G.S.c c c L.(.S.S.S.S.S.^.c F.U.c c c c [.L.g.r.9.9.9.OXG.9.9.9.9.a.c c c c c c c c c ",
"w.c c F.G.c c c c c c L.L.c c c D.G.S.c c G.S.c c c F.I.Y.c c c c c c ].G.K.c c c I.L.V.9.9.9.9.OXG.9.9.9.9.Z.c c c c c c c c c ",
"0.d.c F.G.c c c c c c P.U.K.c ^.U.G.S.c c G.S.c c c Y.U.&XY.c c ].].c c I.L.Y.c {.U.L.p.9.9.E.*X=XG.*X*XW.9.i.c c c c c c c c c ",
"9.e.3.F.G.c c c c c c Y.(.G.G.U.{.G.S.c c G.S.c c c c ^.L.G.G.G.U.D.c c ^.I.G.G.L.P.L.C.9.9.G.G.G.G.G.G.E.9.r.d.c c c c c c c c ",
"9.9.e.-Xc 6.a.u.V.2.c c c K.S.c c c c c c c c c c c c c c c S.K.c c c c c c K.K.c c c 3.9.9.9.9.9.9.9.9.9.9.9.5.c c c c c c c c ",
"9.9.9.9.9.r.r.9.9.9.l.c c c c c c c c c c c c c c c c c c c c c c c c c c c c c c c c c r.9.9.9.9.9.9.9.9.9.N.k.c c c c c c c c "
};
