/* XPM */
static char *dc1afa73835d43a4eb6ffdc2eaa4df5cLMnJT2X2LYlsbx3k[] = {
/* columns rows colors chars-per-pixel */
"64 64 185 2 ",
"   c #1F6D07",
".  c #00790A",
"X  c #B7CB26",
"o  c #A9C524",
"O  c #8AB71F",
"+  c #2B8C10",
"@  c #559F17",
"#  c #81B31E",
"$  c #328F11",
"%  c #4F9D16",
"&  c #E1DE2C",
"*  c #065E15",
"=  c #046412",
"-  c #036B0F",
";  c #3B9313",
":  c #DEDD2C",
">  c #DDDD2C",
",  c #4E9C16",
"<  c #007809",
"1  c #24890F",
"2  c #89A026",
"3  c #132A2A",
"4  c #1A0F36",
"5  c #0E3D22",
"6  c #13292A",
"7  c #161C30",
"8  c #09501A",
"9  c #181632",
"0  c #0A6813",
"q  c #9CBF22",
"w  c #83B41E",
"e  c #0B4A1C",
"r  c #15232D",
"t  c #01710C",
"y  c #0D4320",
"u  c #7AB01C",
"i  c #017809",
"p  c #15232E",
"a  c #085718",
"s  c #112F28",
"d  c #1A1633",
"f  c #D4D02C",
"g  c #D4D92A",
"h  c #181532",
"j  c #161C31",
"k  c #51622B",
"l  c #103625",
"z  c #117208",
"x  c #BACD26",
"c  c #C9D329",
"v  c #0D4420",
"b  c #047709",
"n  c #E2DF2D",
"m  c #067609",
"M  c #97BD21",
"N  c #21880F",
"B  c #0B7408",
"V  c #226C06",
"C  c #1E6D07",
"Z  c #92BB20",
"A  c #1F2032",
"S  c #4B4333",
"D  c #393332",
"F  c #0B7409",
"G  c #057709",
"H  c #197007",
"J  c #754F00",
"K  c #76822B",
"L  c #869728",
"P  c #077609",
"I  c #6B5201",
"U  c #027709",
"Y  c #794E00",
"T  c #085817",
"R  c #09511A",
"E  c #339011",
"W  c #E0DE2C",
"Q  c #196F07",
"!  c #027809",
"~  c #565A02",
"^  c #366505",
"/  c #076311",
"(  c #14282A",
")  c #15222E",
"_  c #3C6304",
"`  c #256B06",
"'  c #037709",
"]  c #01700B",
"[  c #1E6E07",
"{  c #665401",
"}  c #3D6304",
"|  c #74AD1C",
" . c #0D7408",
".. c #744F00",
"X. c #2E6806",
"o. c #057609",
"O. c #475F04",
"+. c #1C6E07",
"@. c #406104",
"#. c #087609",
"$. c #9ABE21",
"%. c #0F7308",
"&. c #6A5301",
"*. c #436104",
"=. c #6C5100",
"-. c #3A6405",
";. c #097509",
":. c #515C03",
">. c #017709",
",. c #595902",
"<. c #2F6706",
"1. c #1B6F07",
"2. c #0A7509",
"3. c #4A5E03",
"4. c #107308",
"5. c #0A7508",
"6. c #4E5D03",
"7. c #715000",
"8. c #137108",
"9. c #645501",
"0. c #725000",
"q. c #4D5D03",
"w. c #147108",
"e. c #5C5802",
"r. c #6F5100",
"t. c #246C07",
"y. c #456004",
"u. c #685301",
"i. c #2D6806",
"p. c #545A03",
"a. c #2E6805",
"s. c #236C06",
"d. c #764E00",
"f. c #6E5100",
"g. c #5E5702",
"h. c #515B03",
"j. c #5D5702",
"k. c #6D5200",
"l. c #446004",
"z. c #7A4F01",
"x. c #7F5404",
"c. c #815506",
"v. c #7E5203",
"b. c #7C5002",
"n. c #7D5103",
"m. c #7A4F00",
"M. c #845707",
"N. c #8D600E",
"B. c #8F610F",
"V. c #8D5F0D",
"C. c #855908",
"Z. c #7D5102",
"A. c #8D5F0E",
"S. c #8E600E",
"D. c #865909",
"F. c #825606",
"G. c #885B0A",
"H. c #8B5D0C",
"J. c #8C5F0D",
"K. c #7F5304",
"L. c #885A0A",
"P. c #7C5102",
"I. c #835607",
"U. c #805405",
"Y. c #8A5C0B",
"T. c #835606",
"R. c #7B4F01",
"E. c #805404",
"W. c #8A5D0B",
"Q. c #7D5203",
"!. c #895C0B",
"~. c #815405",
"^. c #825506",
"/. c #875A0A",
"(. c #835707",
"). c #895B0A",
"_. c #8C5E0D",
"`. c #855808",
"'. c #8A5D0C",
"]. c #875A09",
"[. c #845808",
"{. c #8B5E0C",
"}. c #7B5001",
"|. c #7B5002",
" X c #815505",
/* pixels */
"  . . . . . . . . . . . . . . . . . . . . . . . . . . . . . . . . . . . . . . . . . . . . . . . . . . . . . . . . . . . . . . . ",
". . . . . X o O . . . . . . . . . . . . . . . . . . . . . . . . . . . . . . . . . . . . . . . . . . . . . . . . . . . . + @ # $ ",
". . . . . % & & . . * * . . . . . . . = - . . . . . . - * . . . . . . . . . . . . . . . * - . . . . . . . . . . . . . . ; : > , ",
"< . . . . . 1 2 3 4 4 4 4 5 . . 6 5 3 4 4 7 = . . 8 9 4 4 4 3 0 q w . . * 4 . . * 4 e 9 4 4 r t . . . . . . 4 y . . . . . ; u . ",
"i . . . . . - 9 p a . . a e . . 6 9 e . t 6 7 . . * a . . t s d f g . . * 4 . . * 4 h = . - h 5 . . . . . . 4 y . . . . . . . . ",
". < . . . . 8 4 - . . . . . . . 6 j . . . - 4 a . . . . . . t h k : . . * 4 . . * 4 8 . . . 6 6 . . . . . . 4 y . . . . . . . . ",
"< . . . . . y 4 . . . . . . . . 6 l . . . . 4 y . = * * * * * r s . . . * 4 . . * 4 * . . * 9 e . . . . . . 4 y . . . . . . . . ",
"z < . . . . - 4 5 . . . . 1 x c 6 5 . . . . h y . 6 j 6 6 6 6 h 6 . . . * 4 . . * 4 4 4 4 4 l . . . 8 v v v 4 y . . . . . . . . ",
"b < . . . . . a p 9 3 5 . 1 > n 6 r . . . t 4 a . 6 l . . . . p y . . . y 4 . . t 4 e * - . . . . 6 4 6 y y 4 y . . . . . . . < ",
"< m < . . . . 8 j 5 y 8 . . . M 6 4 8 . . l h t . 8 9 = . . e 4 - . . - 7 4 . . . j l . c N - - a 4 8 . . . 4 y . . . . . . < B ",
"V b C < . . - 4 8 . . . . . . . 6 l j r 7 h a . Z . 5 4 3 7 h a . s r h 5 4 . . . * h A S D 4 = y 4 . . . . 4 y . . . < < i F G ",
"i H J i < < = 4 a . . . . . . . 6 y t * a - . : n . . = 8 * t . . a a t t * . . . . t * K L t . e 4 * . . . 4 y . . .   i P P I ",
"U Y Y i B i i j r T = * R a . . 6 y . . . . . E W . . . . . . . . . . . . . . . . . . . . . . . t h 7 R * * 4 y < Q ! < < i ~ Y ",
"Y Y Y < ^ G U / ( 4 4 4 j 8 . . 6 y . . . . . . 1 . . . . . . . . . . . . . . . . . . . . . . . . - l ) 4 4 4 y . < . . < H Y Y ",
"Y Y Y . _ ` ' G . . ] . . . . . 8 * . . . . . . . . . . . . . . < < . . . . . . . . . . . . . . . < . < . . . < < < i [ { Y Y Y ",
"Y Y Y . } Y < < < . G < . . . . . . . . . . . . . . . . . . . < < . < . . @ | . . . . . . . . . < < < .  ...i X.o.' Y Y Y Y Y Y ",
"Y Y Y < _ Y O.+.F < @.i < . . . . . . . . . . . . . . . . . . #.< < < . . $.& 1 . . . . . . . . %.< < ' Y Y &...< P Y Y Y Y Y Y ",
"Y Y Y < } Y Y Y Y %.< _ Y *.. . . . . . . . . . . . . . < ! ! ! i =.C i . . . . . . . . . . . . -.J Y { Y Y Y Y ' ;.Y Y Y Y Y Y ",
"Y Y Y . } Y Y Y Y Y { Y Y Y :.P . . . . . . . . . . . >.-.i < < ,.Y I <.. . . . . . . . . . . 1.I Y Y Y Y Y Y Y < 2.Y Y Y Y Y Y ",
"Y Y Y < } Y Y Y Y Y Y Y Y Y J 3.4.. . . . . . . . . 5.6.7.' . b Y Y Y I 1.i . . . . . . . i 8.9.Y Y Y Y Y Y Y Y i +.Y Y Y Y Y Y ",
"Y Y Y < } Y Y Y Y Y Y Y Y Y Y 0.q.w.. . . . . . < P e.Y Y ,.[ 1.Y Y Y Y r.3.t.m . . . G   y.u.Y Y Y Y Y Y Y Y Y b i.Y Y Y Y Y Y ",
"Y Y Y . } Y Y Y Y Y Y Y Y Y Y Y Y Y p.t.. . . a.s...Y Y Y Y Y Y Y Y Y Y Y d.f.g.h.q.:.j.k.d.Y Y Y Y Y Y Y Y Y Y &...Y Y Y Y Y Y ",
"Y Y Y . } Y Y Y Y Y Y Y Y Y Y Y Y Y Y Y Y Y Y Y Y Y Y Y Y Y Y Y Y Y Y Y Y Y Y Y Y Y Y Y Y Y Y Y Y Y Y Y Y Y Y Y Y Y Y Y Y Y Y Y ",
"Y Y Y < l.Y Y Y Y Y Y Y Y Y Y Y Y Y Y Y Y Y Y Y Y Y Y Y Y Y Y Y Y Y Y Y Y Y Y Y Y Y Y Y Y Y Y Y Y Y Y Y Y Y Y Y Y Y Y Y Y Y Y Y ",
"Y Y Y &...Y Y Y Y Y Y Y Y Y Y Y Y Y Y Y Y Y Y Y Y Y Y Y Y Y Y Y Y Y Y Y Y Y Y Y Y Y Y Y Y Y Y Y Y Y Y Y Y Y z.x.c.v.b.n.z.Y Y Y ",
"Y Y Y Y Y Y Y Y Y Y Y Y Y Y Y Y Y Y Y Y Y Y Y Y Y Y Y Y Y Y Y Y Y Y Y Y Y Y Y Y Y Y Y Y Y Y Y Y Y Y Y Y Y m.M.N.B.V.V.B.C.b.Y Y ",
"Y Y Y Y Y Y Y Y Y Y Y Y Y Y Y Y Y Y Y Y Y Y Y Y Y Y Y Y Y Y Y Y Y Y Y Y Y Y Y Y Y Y Y Y Y Y Y Y Y Y Y Y Y Z.A.B.B.B.B.B.S.D.Y Y ",
"Y Y Y Y Y Y Y Y Y Y Y Y Y Y Y Y Y Y Y Y Y Y Y Y Y Y Y Y Y Y Y Y Y Y Y Y Y Y Y Y Y Y Y Y Y Y Y Y Y Y Y Y Y F.B.B.B.B.B.B.B.S.F.Y ",
"Y Y Y Y z.x.c.n.Y Y Y Y Y Y Y Y Y Y Y Y Y Y Y Y Y Y Y Y Y Y Y Y Y Y Y Y Y Y Y Y Y Y Y Y Y Y Y Y Y Y Y Y Y G.B.B.B.B.B.B.B.B.H.Y ",
"Y Y Y m.M.S.B.J.K.Y Y Y Y Y Y Y Y Y Y Y Y Y Y Y Y Y Y Y Y Y Y Y Y Y Y Y Y Y Y Y Y Y Y Y Y Y Y Y Y Y Y Y Y L.B.B.B.B.B.B.B.B.B.Y ",
"Y Y Y P.V.B.B.B.S.H.I.m.Y Y Y Y Y Y Y Y Y Y Y Y Y Y Y Y Y Y Y Y Y Y Y Y Y Y Y Y Y Y Y Y Y Y Y Y Y Y Y Y Y U.S.B.B.B.B.B.B.B.Y.Y ",
"Y Y Y P.B.B.B.B.B.B.S.C.z.Y Y Y Y Y Y Y Y Y Y Y Y Y Y Y Y Y Y Y Y Y Y Y Y Y Y Y Y Y Y Y Y Y Y Y Y Y Y Y Y Y T.S.B.S.A.A.B.G.R.Y ",
"Y Y Y z.S.B.B.B.B.B.B.B.v.Y Y Y Y Y Y Y Y Y Y Y Y Y Y R.Y.B.V.D.m.Y Y Y Y Y Y Y Y Y Y Y Y Y Y Y Y Y Y Y Y Y Y P.n.R.Y Y Y Y Y Y ",
"Y Y Y Y B.B.B.B.B.B.B.B.E.Y Y Y Y Y Y Y Y Y Y Y Y Y Y G.B.B.B.S.M.z.Y Y Y Y Y Y Y Y Y Y Y Y Y Y Y Y Y Y Y Y Y Y Y Y Y Y Y Y Y Y ",
"Y Y Y Y B.B.B.B.B.B.B.S.v.Y Y Y Y Y Y Y Y Y Y Y Y U.W.B.B.B.B.B.B.Q.Y Y Y Y Y Y Y Y Y Y Y Y Y Y Y Y Y Y Y Y Y Y Y Y Y Y Y Y Y Y ",
"Y Y Y Y H.B.B.B.B.B.B.G.m.Y Y Y Y Y Y Y Y Y Y U.!.S.B.B.B.B.B.B.B.~.Y Y Y Y Y Y Y Y Y Y Y Y Y Y Y Y Y Y Y Y Y Y Y Y Y Y Y Y Y Y ",
"Y Y Y Y ^.B.B.B.B.S.H.Z.Y Y Y Y Y Y Y Y Y Y E.V.B.B.B.B.B.B.B.B.B./.Y Y Y Y Y Y Y Y Y Y Y Y Y Y Y Y Y Y Y Y Y Y Y Y Y Y Y Y Y Y ",
"Y Y Y Y m.G.B.B.S.Y.v.Y Y Y Y Y Y Y Y Y Y Y !.B.B.B.B.B.B.B.B.B.B.H.Y Y Y Y Y Y Y Y Y Y Y Y Y Y Y Y Y Y Y Y Y Y Y Y Y Y Y Y Y Y ",
"Y Y Y Y Y Y m.P.P.m.Y Y Y Y Y Y Y Y Y Y Y Y Y.B.B.B.B.B.B.B.B.B.B.(.Y Y Y Y Y Y Y Y Y Y Y ).S.S.A.B.N.D.Y Y Y Y Y Y Y Y Y Y Y Y ",
"Y Y Y Y Y Y Y Y Y Y Y Y Y Y Y Y Y Y Y Y Y Y U.S.B.B.B.B.B.S.V._.(.Y Y Y Y Y Y Y Y Y Y (.A.B.B.B.B.B.B.B.E.Y Y Y Y Y Y Y Y Y Y Y ",
"Y Y Y Y Y Y Y Y Y Y Y Y Y Y Y Y Y Y Y Y Y Y Y `.S.B.B.B.B./.Y Y Y Y Y Y Y Y Y Y Y Y (.B.B.B.B.B.B.B.B.B.'.Y Y Y Y Y Y Y Y Y Y Y ",
"Y Y Y Y Y Y Y Y Y Y Y Y Y Y Y Y Y Y Y Y Y Y Y Y v.H.S.B.G.P.Y Y Y Y Y Y Y Y Y Y Y Y '.B.B.B.B.B.B.B.B.B.].Y Y Y Y Y Y Y Y Y Y Y ",
"Y Y Y Y Y Y Y Y Y Y Y Y Y Y Y Y Y Y Y Y Y Y Y Y Y Y P.n.R.Y Y Y Y Y Y Y Y Y Y Y Y Y G.B.B.B.B.B.B.B.B.B.v.Y Y Y Y Y Y Y Y Y Y Y ",
"Y Y Y Y Y Y Y Y Y Y Y Y Y Y Y Y Y Y Y Y Y Y Y Y Y Y Y Y Y Y Y Y Y Y Y Y Y Y Y Y Y Y D.B.B.B.B.B.B.B.B.B.P.Y Y Y Y Y Y Y Y Y Y Y ",
"Y Y Y Y Y Y Y Y Y Y Y Y Y Y Y Y Y Y Y Y Y Y Y Y Y Y Y Y Y Y Y Y Y Y Y Y Y Y Y Y Y Y [.B.B.B.B.B.B.B.B.S.P.Y Y Y Y Y Y Y Y Y Y Y ",
"Y Y Y Y Y Y Y Y Y Y Y Y Y Y Y Y Y Y Y Y Y Y Y Y Y Y Y Y Y Y Y Y Y Y Y Y Y Y Y Y Y Y v./.B.B.B.B.B.B.B.'.m.Y Y Y Y Y Y Y Y Y Y Y ",
"Y Y Y Y Y Y Y Y Y Y Y Y Y Y Y Y Y Y Y Y Y Y Y Y Y Y Y Y Y Y Y Y Y Y Y Y Y Y Y Y Y Y Y P.[.G.S.B.B.B.V.E.Y Y Y Y Y Y Y Y Y Y Y Y ",
"Y Y Y Y Y Y Y Y Y Y Y Y Y Y Y Y Y Y Y Y Y Y Y Y Y Y Y Y Y Y Y Y Y Y Y Y Y Y Y Y Y Y Y Y Y Y Y E.W.Y.E.Y Y Y Y Y Y Y Y Y Y Y Y Y ",
"Y Y Y Y Y Y Y Y Y Y Y Y Y Y Y Y Y Y Y Y Y Y Y Y Y Y Y Y Y Y Y Y Y Y Y Y Y Y Y Y Y Y Y Y Y Y Y Y Y Y Y Y Y Y Y Y Y Y Y Y Y Y Y Y ",
"Y Y Y Y Y Y Y Y Y Y Y Y Y Y Y Y Y Y Y Y v.S.B.B.S.U.Y Y Y Y Y Y Y Y Y Y Y Y Y Y Y Y Y Y Y Y Y Y Y Y Y Y Y Y Y Y Y Y Y Y Y Y Y Y ",
"Y Y Y Y Y Y Y Y Y Y Y Y Y Y Y Y Y Y Y z.S.B.B.B.B.B.{.Y Y Y Y Y Y Y Y Y Y Y Y Y Y Y Y Y Y Y Y Y Y Y Y Y Y Y Y Y Y Y Y Y Y Y Y Y ",
"Y Y Y Y Y Y Y Y Y Y Y Y Y Y Y Y Y Y Y K.B.B.B.B.B.B.B.`.Y Y Y Y Y Y Y Y Y Y Y Y Y Y Y Y Y Y Y Y Y Y Y Y Y Y Y Y Y Y Y Y Y Y Y Y ",
"Y Y Y Y Y Y Y Y Y Y Y Y Y Y Y Y Y Y Y c.B.B.B.B.B.B.B.S.P.Y Y Y Y Y Y Y Y Y Y Y Y Y Y Y Y Y Y Y Y Y Y Y Y Y Y Y Y Y Y Y Y Y Y Y ",
"Y Y Y Y Y Y Y Y Y Y Y Y Y Y Y Y Y Y Y v._.B.B.B.B.B.B.B.n.Y Y Y Y Y Y Y Y Y Y Y Y Y Y Y Y Y Y Y Y Y Y Y Y Y Y Y Y Y Y Y Y Y Y Y ",
"Y Y Y Y Y Y Y Y Y Y Y Y Y Y Y Y Y Y Y Y v.].S.B.B.B.B.B.K.Y Y Y Y Y Y Y Y Y Y Y Y Y Y Y Y Y Y Y Y Y Y Y Y Y Y Y Y Y Y Y Y Y Y Y ",
"Y Y Y Y Y Y Y Y Y Y Y Y Y Y Y Y Y Y Y Y Y Y E.B.B.B.B.B.c.Y Y Y Y Y Y Y Y Y Y Y Y Y Y Y Y Y Y Y U.D.[.n.Y Y Y Y Y Y Y Y Y Y Y Y ",
"Y Y Y Y Y Y Y Y Y Y Y Y Y Y Y Y Y Y Y Y Y Y }._.B.B.B.J.K.Y Y Y Y Y Y Y Y Y Y Y Y Y Y Y Y Y Y E.J.B.B.S.].R.Y Y Y Y Y Y Y Y Y Y ",
"Y Y Y Y Y Y Y Y Y Y Y Y Y Y Y Y Y Y Y Y Y Y Y |.{.B.A.U.Y Y Y Y Y Y Y Y Y Y Y Y Y Y Y Y K.!.N.S.B.B.B.B.S.D.z.Y Y Y Y Y Y Y Y Y ",
"Y Y Y Y Y Y Y Y Y Y Y Y Y Y Y Y Y Y Y Y Y Y Y Y Y Y Y Y Y Y Y Y Y Y Y Y Y Y Y Y Y Y Y U.S.B.B.B.B.B.B.B.B.B.K.Y Y Y Y Y Y Y Y Y ",
"Z.Y Y Y Y Y Y Y Y Y Y Y Y Y Y Y Y Y Y Y Y Y Y Y Y Y Y Y Y Y Y Y Y Y Y Y Y Y Y Y Y Y Y '.B.B.B.B.B.B.B.B.B.B.[.Y Y Y Y Y Y Y Y Y ",
"V.P.Y Y Y Y Y Y Y Y Y Y Y Y Y Y Y Y Y Y Y Y Y Y Y Y Y Y Y Y Y Y Y Y Y Y Y Y Y Y Y Y Y J.B.B.B.B.B.B.B.B.B.B.H.Y Y Y Y Y Y Y Y Y ",
"B.A.v.Y Y Y Y Y Y Y Y Y Y Y Y Y Y Y Y Y Y Y Y Y Y Y Y Y Y Y Y Y Y Y Y Y Y Y Y Y Y Y Y ].B.B.B.B.B.B.B.B.B.B.S.P.Y Y Y Y Y Y Y Y ",
"B.B.A. XY m.K.G.'.c.Y Y Y Y Y Y Y Y Y Y Y Y Y Y Y Y Y Y Y Y Y Y Y Y Y Y Y Y Y Y Y Y Y v.B.B.B.B.B.B.B.B.B.B.B.n.Y Y Y Y Y Y Y Y ",
"B.B.B.B.B.S.S.B.B.B.E.Y Y Y Y Y Y Y Y Y Y Y Y Y Y Y Y Y Y Y Y Y Y Y Y Y Y Y Y Y Y Y Y Y S.B.B.B.B.B.B.B.B.B._.R.Y Y Y Y Y Y Y Y "
};
