/* XPM */
static char *_7caf72f0cb040a88cb1d5494077a1e0YWHEMMUG8kALKzLc[] = {
/* columns rows colors chars-per-pixel */
"64 64 235 2 ",
"   c #1F6D07",
".  c #00790A",
"X  c #B7CB26",
"o  c #A9C524",
"O  c #8AB71F",
"+  c #2B8C10",
"@  c #559F17",
"#  c #81B31E",
"$  c #328F11",
"%  c #4F9D16",
"&  c #E1DE2C",
"*  c #3B9313",
"=  c #DEDD2C",
"-  c #DDDD2C",
";  c #4E9C16",
":  c #007809",
">  c #0D4320",
",  c #0D4420",
"<  c #1F4C22",
"1  c #5F692C",
"2  c #087D0B",
"3  c #9CBF22",
"4  c #83B41E",
"5  c #7AB01C",
"6  c #017809",
"7  c #1A0F36",
"8  c #1B850E",
"9  c #D4D92A",
"0  c #065E15",
"q  c #88B61F",
"w  c #117208",
"e  c #13292A",
"r  c #09501A",
"t  c #15232E",
"y  c #24890F",
"u  c #BACD26",
"i  c #C9D329",
"p  c #047709",
"a  c #09511A",
"s  c #161C30",
"d  c #103625",
"f  c #E2DF2D",
"g  c #067609",
"h  c #181532",
"j  c #036B0F",
"k  c #97BD21",
"l  c #21880F",
"z  c #0B7408",
"x  c #226C06",
"c  c #1E6D07",
"v  c #085718",
"b  c #01710C",
"n  c #92BB20",
"m  c #489915",
"M  c #C1D027",
"N  c #0B7409",
"B  c #057709",
"V  c #197007",
"C  c #6F4A03",
"Z  c #0E3D22",
"A  c #0B4A1C",
"S  c #046412",
"D  c #AFC825",
"F  c #ABC624",
"G  c #077609",
"H  c #6B5201",
"J  c #027709",
"K  c #794E00",
"L  c #2C1B2C",
"P  c #191532",
"I  c #16282A",
"U  c #113525",
"Y  c #339011",
"T  c #E0DE2C",
"R  c #196F07",
"E  c #027809",
"W  c #565A02",
"Q  c #6D4506",
"!  c #036A0E",
"~  c #366505",
"^  c #0A5C14",
"/  c #16222E",
"(  c #075C14",
")  c #613D0D",
"_  c #3C6304",
"`  c #256B06",
"'  c #07690E",
"]  c #1E6E07",
"[  c #665401",
"{  c #201332",
"}  c #3D6304",
"|  c #065D14",
" . c #161C31",
".. c #74AD1C",
"X. c #0D7408",
"o. c #744F00",
"O. c #2E6806",
"+. c #057609",
"@. c #037709",
"#. c #4F3217",
"$. c #181632",
"%. c #2F4317",
"&. c #613E0D",
"*. c #1B441B",
"=. c #143424",
"-. c #3D5B07",
";. c #087609",
":. c #9ABE21",
">. c #0F7308",
",. c #6A5301",
"<. c #25172F",
"1. c #115913",
"2. c #436104",
"3. c #6C5100",
"4. c #3A6405",
"5. c #754F00",
"6. c #097509",
"7. c #344D10",
"8. c #724903",
"9. c #515C03",
"0. c #017709",
"q. c #595902",
"w. c #2F6706",
"e. c #1B6F07",
"r. c #0A7509",
"t. c #4A5E03",
"y. c #107308",
"u. c #0A7508",
"i. c #4E5D03",
"p. c #715000",
"a. c #137108",
"s. c #645501",
"d. c #1C6E07",
"f. c #725000",
"g. c #4D5D03",
"h. c #147108",
"j. c #5C5802",
"k. c #6F5100",
"l. c #246C07",
"z. c #456004",
"x. c #685301",
"c. c #2D6806",
"v. c #545A03",
"b. c #2E6805",
"n. c #236C06",
"m. c #764E00",
"M. c #6E5100",
"N. c #5E5702",
"B. c #515B03",
"V. c #5D5702",
"C. c #6D5200",
"Z. c #492E1B",
"A. c #432A1E",
"S. c #446004",
"D. c #5B3A11",
"F. c #7A4F01",
"G. c #7F5404",
"H. c #815506",
"J. c #7E5203",
"K. c #7C5002",
"L. c #7D5103",
"P. c #372225",
"I. c #7A4F00",
"U. c #845707",
"Y. c #8D600E",
"T. c #8F610F",
"R. c #8D5F0D",
"E. c #855908",
"W. c #4A2E1B",
"Q. c #311F28",
"!. c #7D5102",
"~. c #8D5F0E",
"^. c #8E600E",
"/. c #865909",
"(. c #66410A",
"). c #825606",
"_. c #734A04",
"`. c #654210",
"'. c #332029",
"]. c #885B0A",
"[. c #8B5D0C",
"{. c #734A03",
"}. c #704B18",
"|. c #36232C",
" X c #8C5F0D",
".X c #7F5304",
"XX c #885A0A",
"oX c #7C5102",
"OX c #714C18",
"+X c #35222B",
"@X c #684312",
"#X c #805405",
"$X c #8A5C0B",
"%X c #785116",
"&X c #775015",
"*X c #835606",
"=X c #7B4F01",
"-X c #5C3A12",
";X c #281931",
":X c #462D27",
">X c #211433",
",X c #4C3224",
"<X c #543614",
"1X c #3E282A",
"2X c #6A471B",
"3X c #805404",
"4X c #8A5D0B",
"5X c #7D5203",
"6X c #684419",
"7X c #553822",
"8X c #6B471A",
"9X c #875B11",
"0X c #895C0B",
"qX c #815405",
"wX c #6A461B",
"eX c #875A0A",
"rX c #6E4606",
"tX c #452D26",
"yX c #211432",
"uX c #714909",
"iX c #835707",
"pX c #895B0A",
"aX c #8C5E0D",
"sX c #855808",
"dX c #8A5D0C",
"fX c #3E2621",
"gX c #2C1B2B",
"hX c #875A09",
"jX c #845808",
"kX c #553614",
"lX c #8B5E0C",
"zX c #3D2621",
"xX c #7B5001",
"cX c #7B5002",
"vX c #815505",
/* pixels */
"  . . . . . . . . . . . . . . . . . . . . . . . . . . . . . . . . . . . . . . . . . . . . . . . . . . . . . . . . . . . . . . . ",
". . . . . X o O . . . . . . . . . . . . . . . . . . . . . . . . . . . . . . . . . . . . . . . . . . . . . . . . . . . . + @ # $ ",
". . . . . % & & . . . . . . . . . . . . . . . . . . . . . . . . . . . . . . . . . . . . . . . . . . . . . . . . . . . . * = - ; ",
": . > , , , < 1 , , , , , . . . . . . . . . . . . . . . . . . 2 3 4 . . . . . . . . . . . . . . . . . . . . . . . . . . . * 5 . ",
"6 . 7 7 7 7 7 7 7 7 7 7 7 . . . . . . . . . . . . . . . . . . 8 & 9 . . . . . . . . . . . . . . . . . . . . . . . . . . . . . . ",
". : . . . . > > . . . 0 7 . . . . . . . . . . . . . . . . . . . q = . . . . . . . . . . . . . . . . . . . . . . . . . . . . . . ",
": . . . . . > > . . . 0 7 . . . . . . . . . . . . . . . . . . . . . . . . . . . . . . . . . . . . . . . . . . . . . . . . . . . ",
"w : . . . . > e . . . r t y u i . . . . . . . . . . . . . . . . . . . . . . . . . . . . . . . . . . . . . . . . . . . . . . . . ",
"p : . . . . r 7 a . 0 s d y - f . . . . . . . . . . . . . . . . . . . . . . . . . . . . . . . . . . . . . . . . . . . . . . . : ",
": g : . . . . e 7 7 7 h j . . k . . . . . . . . . . . . . . . . . . . . . . . . . . . . i l . . . . . . . . . . . . . . . . : z ",
"x p c : . . . . v > r b . . . . . . . . . . . . n . . . . . . . . . . . . . . . . . . m f M . . . . . . . . . . . . . : : 6 N B ",
"6 V C Z e A . . j S . . . . . . . . . . . . . = f . . . . . . . . . . . . . . . . . . . D F . . . . . . . . . . . . .   6 G G H ",
"J K L P I P U . j 7 b . . . . . . . . . . . . Y T . . . . . . . . . . . . . . . . . . . . . . . . . . . . . . . : R E : : 6 W K ",
"K Q 7 ! ~ ^ 7 p g / ( . . . . . . . . . . . . . y . . . . . . . . . . . . . . . . . . . . . . . . . . : . . . . . : . . : V K K ",
"K ) 7 . _ ` 7 ' . e r . . . . . . . . . . . . . . . . . . . . . : : . . . . . . . . . . . . . . . : . : . . . : : : 6 ] [ K K K ",
"K K { S } K 7 | :  .^ : . . . . . . . . . . . . . . . . . . . : : . : . . @ ... . . . . . . . . : : : . X.o.6 O.+.@.K K K K K K ",
"K K #.$.%.&.7 *.=.h -.6 : . . . . . . . . . . . . . . . . . . ;.: : : . . :.& y . . . . . . . . >.: : @.K K ,.o.: G K K K K K K ",
"K K 7 7 7 7 7 7 <.1.: _ K 2.. . . . . . . . . . . . . . : E E E 6 3.c 6 . . . . . . . . . . . . 4.5.K [ K K K K @.6.K K K K K K ",
"K K ) 0 7.) ) 8.K K [ K K K 9.G . . . . . . . . . . . 0.4.6 : : q.K H w.. . . . . . . . . . . e.H K K K K K K K : r.K K K K K K ",
"K K K : } K K K K K K K K K 5.t.y.. . . . . . . . . u.i.p.@.. p K K K H e.6 . . . . . . . 6 a.s.K K K K K K K K 6 d.K K K K K K ",
"K K K : } K K K K K K K K K K f.g.h.. . . . . . : G j.K K q.] e.K K K K k.t.l.g . . . B   z.x.K K K K K K K K K p c.K K K K K K ",
"K K 7 7 7 7 7 7 7 7 ) K K K K K K K v.l.. . . b.n.o.K K K K K K K K K K K m.M.N.B.g.9.V.C.m.K K K K K K K K K K ,.o.K K K K K K ",
"K K ) 0 7.) ) Z.<.A.8.K K K K K K K K K K K K K K K K K K K K K K K K K K K K K K K K K K K K K K K K K K K K K K K K K K K K K ",
"K K K : S.K K K Q { 8.K K K K K K K K K K K K K K K K K K K K K K K K K K K K K K K K K K K K K K K K K K K K K K K K K K K K K ",
"K K K ,.o.K K K K L D.K K K K K K K K K K K K K K K K K K K K K K K K K K K K K K K K K K K K K K K K K K K F.G.H.J.K.L.F.K K K ",
"K K K K K K K K K P.D.K K K K K K K K K K K K K K K K K K K K K K K K K K K K K K K K K K K K K K K K K K I.U.Y.T.R.R.T.E.K.K K ",
"K K K 8.W.Q.Q.W.Q K K K K K K K K K K K K K K K K K K K K K K K K K K K K K K K K K K K K K K K K K K K K !.~.T.T.T.T.T.^./.K K ",
"K K (.{ <.L { L 7 D.K K K K K K K K K K K K K K K K K K K K K K K K K K K K K K K K K K K K K K K K K K K ).T.T.T.T.T.T.T.^.).K ",
"K K Q.P._.`.'.L.#.{ 8.K K K K K K K K K K K K K K K K K K K K K K K K K K K K K K K K K K K K K K K K K K ].T.T.T.T.T.T.T.T.[.K ",
"K K 7 {.U.}.|. X.X<.) K K K K K K K K K K K K K K K K K K K K K K K K K K K K K K K K K K K K K K K K K K XXT.T.T.T.T.T.T.T.T.K ",
"K ) 7 oXR.OX|.T.^.+X@XI.K K K K K K K K K K K K K K K K K K K K K K K K K K K K K K K K K K K K K K K K K #X^.T.T.T.T.T.T.T.$XK ",
"K Q 7 oXT.OX|.T.%X7 &XE.F.K K K K K K K K K K K K K K K K K K K K K K K K K K K K K K K K K K K K K K K K K *X^.T.^.~.~.T.].=XK ",
"K K { -X^.OX;X:X>X,XT.T.J.K K K K K K K K K K K K K K =X$XT.R./.I.K K K K K K K K K K K K K K K K K K K K K K oXL.=XK K K K K K ",
"K K <X) T.%X|.1X2XT.T.T.3XK K K K K K K K K K K K K K ].T.T.T.^.U.F.K K K K K K K K K K K K K K K K K K K K K K K K K K K K K K ",
"K K K K T.T.T.T.T.T.T.^.J.K K K K K K K K K K K K #X4XT.T.T.T.T.T.5XK K K K K K K K K K K K K K K K K K K K K K K K K K K K K K ",
"K K K K 6X7X7X8X9XT.T.].I.K K K K K K K K K K #X0X^.T.T.T.T.T.T.T.qXK K K K K K K K K K K K K K K K K K K K K K K K K K K K K K ",
"K K (.<.7 >X>X7 >XwX[.!.K K K K K K K K K K 3XR.T.T.T.T.T.T.T.T.T.eXK K K K K K K K K K K K K K K K K K K K K K K K K K K K K K ",
"K K <.Q.rX].T.9XtXyXuXK K K K K K K K K K K 0XT.T.T.T.T.T.T.T.T.T.[.K K K K K K K K K K K K K K K K K K K K K K K K K K K K K K ",
"K Q 7 8.K K I.oXoX<.D.K K K K K K K K K K K $XT.T.T.T.T.T.T.T.T.T.iXK K K K K K K K K K K pX^.^.~.T.Y./.K K K K K K K K K K K K ",
"K (.7 K K K K K K L ) K K K K K K K K K K K #X^.T.T.T.T.T.^.R.aXiXK K K K K K K K K K iX~.T.T.T.T.T.T.T.3XK K K K K K K K K K K ",
"K K Q.#.K K K K <X<.8.K K K K K K K K K K K K sX^.T.T.T.T.eXK K K K K K K K K K K K iXT.T.T.T.T.T.T.T.T.dXK K K K K K K K K K K ",
"K K A.{ <.fXfXgX7 A.W.W.W.) K K K K K K K K K K J.[.^.T.].oXK K K K K K K K K K K K dXT.T.T.T.T.T.T.T.T.hXK K K K K K K K K K K ",
"K K Q.Q.Q.Q.Q.Q.Q.Q.Q.Q.Q.<XK K K K K K K K K K K K oXL.=XK K K K K K K K K K K K K ].T.T.T.T.T.T.T.T.T.J.K K K K K K K K K K K ",
"K K K K K K K K K K K K K K K K K K K K K K K K K K K K K K K K K K K K K K K K K K /.T.T.T.T.T.T.T.T.T.oXK K K K K K K K K K K ",
"K K K K K K K K K K K K K K K K K K K K K K K K K K K K K K K K K K K K K K K K K K jXT.T.T.T.T.T.T.T.^.oXK K K K K K K K K K K ",
"K K K K Z.7 Q.(.K K K K K K K K K K K K K K K K K K K K K K K K K K K K K K K K K K J.eXT.T.T.T.T.T.T.dXI.K K K K K K K K K K K ",
"K K K K Z.Q.Z.7 W.K K K K K K K K K K K K K K K K K K K K K K K K K K K K K K K K K K oXjX].^.T.T.T.R.3XK K K K K K K K K K K K ",
"K K K K Z.Q.K (.L gX(.K K K K K K K K K K K K K K K K K K K K K K K K K K K K K K K K K K K K 3X4X$X3XK K K K K K K K K K K K K ",
"K K K K Z.Q.K K K #.{ W.K K K K K K K K K K K K K K K K K K K K K K K K K K K K K K K K K K K K K K K K K K K K K K K K K K K K ",
"K K ) &.fXgX&.&.&.&.kX{ gXK K K K K K K J.^.T.T.^.#XK K K K K K K K K K K K K K K K K K K K K K K K K K K K K K K K K K K K K K ",
"K K 7 7 7 7 7 7 7 7 7 7 7 K K K K K K F.^.T.T.T.T.T.lXK K K K K K K K K K K K K K K K K K K K K K K K K K K K K K K K K K K K K ",
"K K ) ) zXL ) ) ) ) ) ) ) K K K K K K .XT.T.T.T.T.T.T.sXK K K K K K K K K K K K K K K K K K K K K K K K K K K K K K K K K K K K ",
"K K K K <XA.K K K K K K K K K K K K K H.T.T.T.T.T.T.T.^.oXK K K K K K K K K K K K K K K K K K K K K K K K K K K K K K K K K K K ",
"K K K K K K K K K K K K K K K K K K K J.aXT.T.T.T.T.T.T.L.K K K K K K K K K K K K K K K K K K K K K K K K K K K K K K K K K K K ",
"K K K K K K K K K K K K K K K K K K K K J.hX^.T.T.T.T.T..XK K K K K K K K K K K K K K K K K K K K K K K K K K K K K K K K K K K ",
"K K K K K K K K K K K K K K K K K K K K K K 3XT.T.T.T.T.H.K K K K K K K K K K K K K K K K K K K #X/.jXL.K K K K K K K K K K K K ",
"K K K K K K K K K K K K K K K K K K K K K K xXaXT.T.T. X.XK K K K K K K K K K K K K K K K K K 3X XT.T.^.hX=XK K K K K K K K K K ",
"K K K K K K K K K K K K K K K K K K K K K K K cXlXT.~.#XK K K K K K K K K K K K K K K K .X0XY.^.T.T.T.T.^./.F.K K K K K K K K K ",
"K K K K K K K K K K K K K K K K K K K K K K K K K K K K K K K K K K K K K K K K K K K #X^.T.T.T.T.T.T.T.T.T..XK K K K K K K K K ",
"!.K K K K K K K K K K K K K K K K K K K K K K K K K K K K K K K K K K K K K K K K K K dXT.T.T.T.T.T.T.T.T.T.jXK K K K K K K K K ",
"R.oXK K K K K K K K K K K K K K K K K K K K K K K K K K K K K K K K K K K K K K K K K  XT.T.T.T.T.T.T.T.T.T.[.K K K K K K K K K ",
"T.~.J.K K K K K K K K K K K K K K K K K K K K K K K K K K K K K K K K K K K K K K K K hXT.T.T.T.T.T.T.T.T.T.^.oXK K K K K K K K ",
"T.T.~.vXK I..X].dXH.K K K K K K K K K K K K K K K K K K K K K K K K K K K K K K K K K J.T.T.T.T.T.T.T.T.T.T.T.L.K K K K K K K K ",
"T.T.T.T.T.^.^.T.T.T.3XK K K K K K K K K K K K K K K K K K K K K K K K K K K K K K K K K ^.T.T.T.T.T.T.T.T.T.aX=XK K K K K K K K "
};
