/* XPM */
static char *_83990cad84f4ab9ee4ad32fcc35ed5fOehNtbGHc1uODLP9[] = {
/* columns rows colors chars-per-pixel */
"64 64 220 2 ",
"   c #1F6D07",
".  c #00790A",
"X  c #B7CB26",
"o  c #A9C524",
"O  c #8AB71F",
"+  c #2B8C10",
"@  c #559F17",
"#  c #81B31E",
"$  c #328F11",
"%  c #4F9D16",
"&  c #E1DE2C",
"*  c #3B9313",
"=  c #DEDD2C",
"-  c #DDDD2C",
";  c #4E9C16",
":  c #007809",
">  c #24890F",
",  c #A4C323",
"<  c #087D0B",
"1  c #9CBF22",
"2  c #83B41E",
"3  c #7AB01C",
"4  c #017809",
"5  c #1B850E",
"6  c #D4D92A",
"7  c #88B61F",
"8  c #117208",
"9  c #BACD26",
"0  c #C9D329",
"q  c #047709",
"w  c #E2DF2D",
"e  c #067609",
"r  c #97BD21",
"t  c #21880F",
"y  c #0B7408",
"u  c #226C06",
"i  c #1E6D07",
"p  c #92BB20",
"a  c #489915",
"s  c #C1D027",
"d  c #0B7409",
"f  c #057709",
"g  c #197007",
"h  c #754F00",
"j  c #AFC825",
"k  c #ABC624",
"l  c #077609",
"z  c #6B5201",
"x  c #027709",
"c  c #794E00",
"v  c #339011",
"b  c #E0DE2C",
"n  c #196F07",
"m  c #027809",
"M  c #565A02",
"N  c #366505",
"B  c #037709",
"V  c #017709",
"C  c #01700B",
"Z  c #195712",
"A  c #3C6304",
"S  c #256B06",
"D  c #132A2A",
"F  c #1A0F36",
"G  c #13292A",
"H  c #046311",
"J  c #1E6E07",
"K  c #52420E",
"L  c #3D6304",
"P  c #74AD1C",
"I  c #103625",
"U  c #191532",
"Y  c #472E1B",
"T  c #0C491C",
"R  c #1E1F2D",
"E  c #066311",
"W  c #613D0D",
"Q  c #475F04",
"!  c #1C6E07",
"~  c #406104",
"^  c #087609",
"/  c #9ABE21",
"(  c #0F7308",
")  c #543614",
"_  c #6A5301",
"`  c #744F00",
"'  c #103525",
"]  c #66410A",
"[  c #436104",
"{  c #6C5100",
"}  c #3A6405",
"|  c #724903",
" . c #143425",
".. c #201332",
"X. c #5B3A11",
"o. c #665401",
"O. c #515C03",
"+. c #595902",
"@. c #2F6706",
"#. c #1B6F07",
"$. c #0A7509",
"%. c #3D2621",
"&. c #4A5E03",
"*. c #107308",
"=. c #0A7508",
"-. c #4E5D03",
";. c #715000",
":. c #137108",
">. c #645501",
",. c #2C1B2C",
"<. c #432A1E",
"1. c #725000",
"2. c #4D5D03",
"3. c #147108",
"4. c #5C5802",
"5. c #6F5100",
"6. c #246C07",
"7. c #456004",
"8. c #685301",
"9. c #372225",
"0. c #2D6806",
"q. c #311F28",
"w. c #545A03",
"e. c #2E6805",
"r. c #236C06",
"t. c #764E00",
"y. c #6E5100",
"u. c #5E5702",
"i. c #515B03",
"p. c #5D5702",
"a. c #6D5200",
"s. c #446004",
"d. c #492E1B",
"f. c #3E2622",
"g. c #2D1C2D",
"h. c #452C1F",
"j. c #3F2722",
"k. c #251730",
"l. c #734A03",
"z. c #261830",
"x. c #61411D",
"c. c #8F610F",
"v. c #8D5F0D",
"b. c #56381B",
"n. c #321F28",
"m. c #64400F",
"M. c #2F1E2F",
"N. c #8E600E",
"B. c #6D4506",
"V. c #613F15",
"C. c #281931",
"Z. c #875B11",
"A. c #754C0B",
"S. c #7A4F01",
"D. c #7F5404",
"F. c #815506",
"G. c #7D5103",
"H. c #7A510F",
"J. c #211433",
"K. c #462D27",
"L. c #805613",
"P. c #37242B",
"I. c #271931",
"U. c #8B5D0C",
"Y. c #7A4F00",
"T. c #845707",
"R. c #8C5F0D",
"E. c #7F5304",
"W. c #885A0A",
"Q. c #6A471B",
"!. c #785116",
"~. c #7C5102",
"^. c #835607",
"/. c #805405",
"(. c #543723",
"). c #8A5C0B",
"_. c #855908",
"`. c #835606",
"'. c #8D5F0E",
"]. c #885B0A",
"[. c #7B4F01",
"{. c #7E5203",
"}. c #865909",
"|. c #563715",
" X c #382426",
".X c #805404",
"XX c #25172F",
"oX c #8A5D0B",
"OX c #7D5203",
"+X c #895C0B",
"@X c #815405",
"#X c #825506",
"$X c #7D5102",
"%X c #875A0A",
"&X c #372325",
"*X c #835707",
"=X c #895B0A",
"-X c #8D600E",
";X c #2C1B2B",
":X c #8C5E0D",
">X c #855808",
",X c #8A5D0C",
"<X c #875A09",
"1X c #4A2E1B",
"2X c #613E0D",
"3X c #845808",
"4X c #4F3217",
"5X c #8B5E0C",
"6X c #5C3A10",
"7X c #7B5001",
"8X c #7F5512",
"9X c #211432",
"0X c #7B5002",
"qX c #3E282A",
"wX c #6A4614",
"eX c #301E2F",
"rX c #62411D",
"tX c #714C18",
"yX c #815505",
"uX c #4B2F1D",
/* pixels */
"  . . . . . . . . . . . . . . . . . . . . . . . . . . . . . . . . . . . . . . . . . . . . . . . . . . . . . . . . . . . . . . . ",
". . . . . X o O . . . . . . . . . . . . . . . . . . . . . . . . . . . . . . . . . . . . . . . . . . . . . . . . . . . . + @ # $ ",
". . . . . % & & . . . . . . . . . . . . . . . . . . . . . . . . . . . . . . . . . . . . . . . . . . . . . . . . . . . . * = - ; ",
": . . . . . > , . . . . . . . . . . . . . . . . . . . . . . . < 1 2 . . . . . . . . . . . . . . . . . . . . . . . . . . . * 3 . ",
"4 . . . . . . . . . . . . . . . . . . . . . . . . . . . . . . 5 & 6 . . . . . . . . . . . . . . . . . . . . . . . . . . . . . . ",
". : . . . . . . . . . . . . . . . . . . . . . . . . . . . . . . 7 = . . . . . . . . . . . . . . . . . . . . . . . . . . . . . . ",
": . . . . . . . . . . . . . . . . . . . . . . . . . . . . . . . . . . . . . . . . . . . . . . . . . . . . . . . . . . . . . . . ",
"8 : . . . . . . . . . . . > 9 0 . . . . . . . . . . . . . . . . . . . . . . . . . . . . . . . . . . . . . . . . . . . . . . . . ",
"q : . . . . . . . . . . . > - w . . . . . . . . . . . . . . . . . . . . . . . . . . . . . . . . . . . . . . . . . . . . . . . : ",
": e : . . . . . . . . . . . . r . . . . . . . . . . . . . . . . . . . . . . . . . . . . 0 t . . . . . . . . . . . . . . . . : y ",
"u q i : . . . . . . . . . . . . . . . . . . . . p . . . . . . . . . . . . . . . . . . a w s . . . . . . . . . . . . . : : 4 d f ",
"4 g h 4 : : . . . . . . . . . . . . . . . . . = w . . . . . . . . . . . . . . . . . . . j k . . . . . . . . . . . . .   4 l l z ",
"x c c 4 y 4 4 . . . . . . . . . . . . . . . . v b . . . . . . . . . . . . . . . . . . . . . . . . . . . . . . . : n m : : 4 M c ",
"c c c : N f x q e B V . . . . . . . . . . . . . > . . . . . . . . . . . . . . . . . . . . . . . . . . : . . . . . : . . C Z c c ",
"c c c . A S B f . . : . . . . . . . . . . . . . . . . . . . . . : : . . . . . . . . . . . . . . . : . C D F F G H : 4 J K F c c ",
"c c c . L c : : : . f : . . . . . . . . . . . . . . . . . . . : : . : . . @ P . . . . . . . . . : : : I U Y T R U E c c W F c c ",
"c c c : A c Q ! d : ~ 4 : . . . . . . . . . . . . . . . . . . ^ : : : . . / & > . . . . . . . . ( : : F ) c _ ` ' U ] c W F c c ",
"c c c : L c c c c ( : A c [ . . . . . . . . . . . . . . : m m m 4 { i 4 . . . . . . . . . . . . } h | F ] c c c B  ...X.W F c c ",
"c c c . L c c c c c o.c c c O.l . . . . . . . . . . . V } 4 : : +.c z @.. . . . . . . . . . . #.z c c F W c c c : $.%.F %.F c c ",
"c c c : L c c c c c c c c c h &.*.. . . . . . . . . =.-.;.B . q c c c z #.4 . . . . . . . 4 :.>.c c c ,.<.c c c 4 ! c %.F F c c ",
"c c c : L c c c c c c c c c c 1.2.3.. . . . . . : l 4.c c +.J #.c c c c 5.&.6.e . . . f   7.8.c c c c ) 9.c c c q 0.c c <.q.c c ",
"c c c . L c c c c c c c c c c c c c w.6.. . . e.r.` c c c c c c c c c c c t.y.u.i.2.O.p.a.t.c c c c c c c c c c _ ` c c c c c c ",
"c c c . L c c c c c c c c c c c c c c c c c c c c c c c c c c c c c c c c c c c c c c c c c c c c c c c c c c c c c c c c c c c ",
"c c c : s.c c c c c c c c c c c c c c c c c c c c c c c c c c c c c c c c c c c c c c c c c c c c c ) q.q.q.q.q.q.q.q.q.q.q.c c ",
"c c c _ ` c c c c c c c c c c c c c c c c c c c c c c c c c c c c c c c c c c c c c c c c c c c c c W d.d.d.f.F g.h.j.k...<.c c ",
"c c c c c c c c c c c c c c c c c c c c c c c c c c c c c c c c c c c c c c c c c c c c c c c c c c c c c l.z.x.c.v.v.c.b.n.c c ",
"c c c c c c c c c c c c c c c c c c c c c c c c c c c c c c c c c c c c c c c c c c c c c c c c c c c c c m.M.c.c.c.c.c.N.F B.c ",
"c c c c c c c c c c c c c c c c c c c c c c c c c c c c c c c c c c c c c c c c c c c c c c c c c c c c c V.C.c.c.c.c.c.Z.F A.c ",
"c c c c S.D.F.G.c c c c c c c c c c c c c c c c c c c c c c c c c c c c c c c c c c c c c c c c c c c c c H.J.K.Z.c.c.L.P.I.U.c ",
"c c c Y.T.N.c.R.E.c c c c c c c c c c c c c c c c c c c c c c c c c c c c c c c c c c c c c c c c c c c c W.Q.J.F J.F F I.!.c.c ",
"c c c ~.v.c.c.c.N.U.^.Y.c c c c c c c c c c c c c c c c c c c c c c c c c c c c c c c c c c c c c c c c c /.N.Z.Q.(.(.Q.c.c.).c ",
"c c c ~.c.c.c.c.c.c.N._.S.c c c c c c c c c c c c c c c c c c c c c c c c c c c c c c c c c c c c c c c c c `.N.c.N.'.'.c.].[.c ",
"c c c S.N.c.c.c.c.c.c.c.{.c c c c c c c c c c c c c c [.).c.v.}.Y.c c c c c c c c c c c c c c c c c c c c c c |. Xn.] c X.) c c ",
"c c c c c.c.c.c.c.c.c.c..Xc c c c c c c c c c c c c c ].c.c.c.N.T.S.c c c c c c c c c c c c c c c c c c c c <...%.XXW c X...c c ",
"c c c c c.c.c.c.c.c.c.N.{.c c c c c c c c c c c c /.oXc.c.c.c.c.c.OXc c c c c c c c c c c c c c c c c c c ] F ] c q.W c c F B.c ",
"c c c c U.c.c.c.c.c.c.].Y.c c c c c c c c c c /.+XN.c.c.c.c.c.c.c.@Xc c c c c c c c c c c c c c c c c c c ) q.c c q.W c c F W c ",
"c c c c #Xc.c.c.c.N.U.$Xc c c c c c c c c c .Xv.c.c.c.c.c.c.c.c.c.%Xc c c c c c c c c c c c c c c c c c c W XXc c q.W c | F c c ",
"c c c c Y.].c.c.N.).{.c c c c c c c c c c c +Xc.c.c.c.c.c.c.c.c.c.U.c c c c c c c c c c c c c c c c c c c | ..) c q.W | &Xq.c c ",
"c c c c c c Y.~.~.Y.c c c c c c c c c c c c ).c.c.c.c.c.c.c.c.c.c.*Xc c c c c c c c c c c =XN.N.'.c.-X}.c c X.F ;X..;X....] c c ",
"c c c c c c c c c c c c c c c c c c c c c c /.N.c.c.c.c.c.N.v.:X*Xc c c c c c c c c c *X'.c.c.c.c.c.c.c..Xc c B.d.q.9.d.| c c c ",
"c c c c c c c c c c c c c c c c c c c c c c c >XN.c.c.c.c.%Xc c c c c c c c c c c c *Xc.c.c.c.c.c.c.c.c.,XX.9.c c c c c c c c c ",
"c c c c c c c c c c c c c c c c c c c c c c c c {.U.N.c.].~.c c c c c c c c c c c c ,Xc.c.c.c.c.c.c.c.c.<XX.;Xc c c c c c c c c ",
"c c c c c c c c c c c c c c c c c c c c c c c c c c ~.G.[.c c c c c c c c c c c c c ].c.c.c.c.c.c.c.c.c.{.B...B.c c c c c c c c ",
"c c c c c c c c c c c c c c c c c c c c c c c c c c c c c c c c c c c c c c c c c c }.c.c.c.c.c.c.c.c.c.~.| <.XX1X2X2X2X2X2Xc c ",
"c c c c c c c c c c c c c c c c c c c c c c c c c c c c c c c c c c c c c c c c c c 3Xc.c.c.c.c.c.c.c.N.~.W F F F F F F F F c c ",
"c c c c c c c c c c c c c c c c c c c c c c c c c c c c c c c c c c c c c c c c c c {.%Xc.c.c.c.c.c.c.,XY.c c c c c c c c c c c ",
"c c c c c c c c c c c c c c c c c c c c c c c c c c c c c c c c c c c c c c c c c c c ~.3X].N.c.c.c.v..Xc c c c c c c c c c c c ",
"c c c c c c c c c c c c c c c c c c c c c c c c c c c c c c c c c c c c c c c c c c c c c c c .XoX)..Xc c c c c | 2X2X2X2X2Xc c ",
"c c c c c c c c c c c c c c c c c c c c c c c c c c c c c c c c c c c c c c c c c c c c c c c c c c c c c c W XXF F F F F F c c ",
"c c c c c c c c c c c c c c c c c c c c {.N.c.c.N./.c c c c c c c c c c c c c c c c c c c c c c c c c c c | ..%.4XF W ) ..4Xc c ",
"c c c c c c c c c c c c c c c c c c c S.N.c.c.c.c.c.5Xc c c c c c c c c c c c c c c c c c c c c c c c c c W XXc W F c c ] ..c c ",
"c c c c c c c c c c c c c c c c c c c E.c.c.c.c.c.c.c.>Xc c c c c c c c c c c c c c c c c c c c c c c c c 4Xq.c B.F c c c F W c ",
"c c c c c c c c c c c c c c c c c c c F.c.c.c.c.c.c.c.N.~.c c c c c c c c c c c c c c c c c c c c c c c c W ;Xc c F W c B.F B.c ",
"c c c c c c c c c c c c c c c c c c c {.:Xc.c.c.c.c.c.c.G.c c c c c c c c c c c c c c c c c c c c c c c c | F B.c %...q...q.c c ",
"c c c c c c c c c c c c c c c c c c c c {.<XN.c.c.c.c.c.E.c c c c c c c c c c c c c c c c c c c c c c c c c ] B.c c 4Xq.<.| c c ",
"c c c c c c c c c c c c c c c c c c c c c c .Xc.c.c.c.c.F.c c c c c c c c c c c c c c c c c c c /.}.3XG.| 4X1X6Xc c c c c c c c ",
"c c c c c c c c c c c c c c c c c c c c c c 7X:Xc.c.c.R.E.c c c c c c c c c c c c c c c c c c .XR.c.c.8X9XF F F q.c c c c c c c ",
"c c c c c c c c c c c c c c c c c c c c c c c 0X5Xc.'./.c c c c c c c c c c c c c c c c E.+X-XN.c.c.c.qXI.wXS.4XF ) c c c c c c ",
"c c c c c c c c c c c c c c c c c c c c c c c c c c c c c c c c c c c c c c c c c c c /.N.c.c.c.c.c.c.eXrXc.E.c q.d.c c c c c c ",
"$Xc c c c c c c c c c c c c c c c c c c c c c c c c c c c c c c c c c c c c c c c c c ,Xc.c.c.c.c.c.c.F tXc.3Xc d.d.c c c c c c ",
"v.~.c c c c c c c c c c c c c c c c c c c c c c c c c c c c c c c c c c c c c c c c c R.c.c.c.c.c.c.c.F tXc.U.c d.d.c c c c c c ",
"c.'.{.c c c c c c c c c c c c c c c c c c c c c c c c c c c c c c c c c c c c c c c c <Xc.c.c.c.c.c.c.F F F F F F F F F F F c c ",
"c.c.'.yXc Y.E.].,XF.c c c c c c c c c c c c c c c c c c c c c c c c c c c c c c c c c {.c.c.c.c.c.c.c.(.(.(.(.uXd.d.d.d.d.d.c c ",
"c.c.c.c.c.N.N.c.c.c..Xc c c c c c c c c c c c c c c c c c c c c c c c c c c c c c c c c N.c.c.c.c.c.c.c.c.c.:X[.c c c c c c c c "
};
