/* XPM */
static char *_33e5a56a4ff4336dc337ce2b4be4f07ZYMZ1bR60lm4iYEH[] = {
/* columns rows colors chars-per-pixel */
"64 64 147 2 ",
"   c gray34",
".  c #7B7B7B",
"X  c #9D9D9D",
"o  c #9F9F9F",
"O  c gray60",
"+  c #777777",
"@  c #5A5A5A",
"#  c gray40",
"$  c gray",
"%  c gray77",
"&  c #C3C3C3",
"*  c #B6B6B6",
"=  c #727272",
"-  c #A0A0A0",
";  c #C5C5C5",
":  c gray76",
">  c gray72",
",  c #C1C1C1",
"<  c #A2A2A2",
"1  c #5D5D5D",
"2  c gray63",
"3  c #ACACAC",
"4  c #C0C0C0",
"5  c gray62",
"6  c gray39",
"7  c gray46",
"8  c #606060",
"9  c #868686",
"0  c #B9B9B9",
"q  c gray65",
"w  c #979797",
"e  c gray45",
"r  c #BCBCBC",
"t  c #BBBBBB",
"y  c gray73",
"u  c #646464",
"i  c gray75",
"p  c gray56",
"a  c #959595",
"s  c #929292",
"d  c #B1B1B1",
"f  c gray71",
"g  c #B7B7B7",
"h  c #909090",
"j  c gray66",
"k  c gray51",
"l  c #6C6C6C",
"z  c #7C7C7C",
"x  c gray57",
"c  c #B2B2B2",
"v  c gray74",
"b  c #6A6A6A",
"n  c gray54",
"m  c #A7A7A7",
"M  c gray49",
"N  c DimGray",
"B  c #6C6B6E",
"V  c #B4B3B8",
"C  c #9A9A9A",
"Z  c #4B475D",
"A  c #21184E",
"S  c #9492A0",
"D  c #7E7E7E",
"F  c #413D53",
"G  c #9897A4",
"H  c #92919F",
"J  c #4D4B55",
"K  c #494754",
"L  c #464354",
"P  c #545257",
"I  c #A5A3AD",
"U  c #9B99A7",
"Y  c #9997A4",
"T  c #484654",
"R  c #2E2850",
"E  c #474068",
"W  c #48426A",
"Q  c #3F3B53",
"!  c #231B4F",
"~  c #27204F",
"^  c #2A2350",
"/  c #312B50",
"(  c #241B4F",
")  c #504F56",
"_  c #423F53",
"`  c #474169",
"'  c #49436B",
"]  c #28204E",
"[  c #2A234F",
"{  c #2E284F",
"}  c #A4A4A4",
"|  c #383352",
" . c #424054",
".. c #342E56",
"X. c #676767",
"o. c #3C3852",
"O. c #423C63",
"+. c #3B3752",
"@. c #3D375F",
"#. c #595570",
"$. c #251C50",
"%. c #3E3764",
"&. c #716D88",
"*. c #808080",
"=. c #5D587A",
"-. c #514F5D",
";. c #726E89",
":. c #7A768D",
">. c #B0AFB6",
",. c #312957",
"<. c #353051",
"1. c #7D7B89",
"2. c #B7B6BA",
"3. c #352D5B",
"4. c #9C9AA7",
"5. c #928FA0",
"6. c #352E5D",
"7. c #787683",
"8. c #918F9D",
"9. c #BBBABE",
"0. c #2B2155",
"q. c #AFAEB5",
"w. c #6D6D6D",
"e. c gray64",
"r. c #767676",
"t. c #B4B4B4",
"y. c #818181",
"u. c gray69",
"i. c gray44",
"p. c #6F6F6F",
"a. c #AEAEAE",
"s. c #797979",
"d. c #AAAAAA",
"f. c gray68",
"g. c #A9A9A9",
"h. c gray59",
"j. c #8B8B8B",
"k. c #AFAFAF",
"l. c gray70",
"z. c gray67",
"x. c #8E8E8E",
"c. c #838383",
"v. c #888888",
"b. c gray61",
"n. c #898989",
"m. c #848484",
"M. c #939393",
/* pixels */
"                                                                                                                                ",
"                                                                                                                                ",
"                                                                                                                                ",
"                                                                                      . X o O + @                               ",
"                                                                                    # $ % & & % * =                             ",
"                                                                                    - % % ; % ; & : > - .                       ",
"                                                                                  = & % % ; ; ; & , % : , < 1                   ",
"                                                                                  2 % ; ; ; ; ; ; ; % & , & 3 1                 ",
"                                                                                  > ; ; ; ; ; ; ; ; % ; % 4 : 5                 ",
"                                  6 7 1                                           & ; ; ; ; ; ; % : : ; % % : : @               ",
"                              8 9 0 & q                                         1 % ; ; ; ; ; ; % 4 % ; ; ; ; % w               ",
"                            e 0 4 & % 4 1                                       O ; ; ; ; ; & % ; % & % ; ; ; , r               ",
"                            , ; t ; ; & X                                     6 , ; ; ; ; % t ; ; : $ % : ; ; y & u             ",
"                            % ; & ; ; & i 1                                   p ; ; ; ; & % ; ; ; , ; ; % % ; 4 % a             ",
"                            $ ; ; ; ; ; % s                                   d ; ; ; : , ; ; ; ; ; ; ; ; & % % & <             ",
"                            f ; ; ; ; % % i @                                 g ; % & 4 ; ; % ; ; ; ; ; % $ r & : h             ",
"                            q ; ; ; ; ; ; ; 0 j k                             o & f & % ; ; ; ; ; ; ; & & & , , : l             ",
"                            z % ; ; ; & % ; : : : 0 x @                       @ c & : ; ; ; ; ; g , % v . 9 r & > @             ",
"                            b & ; % ; ; $ ; ; 4 % & : 2 b                       n & v & % ; ; g m % > 1     1 M e               ",
"                            @ 4 ; ; % ; & ; ; ; ; ; & & r N                     B V v & % ; : C & r #                           ",
"                              4 % ; ; ; ; ; ; ; ; ; ; , % 0                     Z A S 0 : r c & 4 D                             ",
"                              4 , ; % ; ; ; % ; ; ; & & i :                     F A G 4 4 : & $ .                               ",
"                              4 r ; % % ; ; % ; ; % ; ; i 4                     F A H v v 0 w @                                 ",
"                  J K L K P   4 y I U , ; ; % % Y I ; % : w     K L K           F A T           J L K                           ",
"              P R A A A A A K 4 i E A & ; ; ; % A W ; & i @ Q ! A A A ~ J       F A T       J ^ A A A ! Q                       ",
"              / ( L     ) _ J q & ` A ; ; ; ; ; A ' % & o Q A / J   L ] ! P     F A T     P ! ( _ P J [ A _                     ",
"              [ {             1 d W A % : ; ; ; A W & } P ! {         J A Q     F A T     | A _       P ( ~                     ",
"              / A  .P             ..A v : % % % A W j @ K A _           ] {     F A T     { A X.1       | A )                   ",
"              J ] A A ^ o.)       { A 1 w 4 i > A O.@   +.A A A A A A A A {     F A T     ( @.r O c i t #.A K                   ",
"                  L | [ A ! J     { A     } % : A R     +.A Q K K K K K K J     F A T     $.%.% : % : : &.A K                   ",
"                        L A /     { A     1 k *.A {     K A Q                   F A T 1 w W A % , ; & % =.A )                   ",
"                          A {     +.A K       Q A {     P ( ~ P                 F A -.m & ;.A :.4 ; ; >.A ,.                    ",
"              ] Q K K K / A _     ) A ^ L K o.( A {       L A ~ L K K  .<.+.    F A 1.% % 2.3.A ;.4.5.6.A 7.                    ",
"              { A A A A ( +.        _ A A A ] J A {         K ] A A A A [ K     F A 8.& % ; 9.' A A A 0.Y #                     ",
"                  K K J                 K J                       K K P             v , % ; ; ; % Y q.; 2                       ",
"                                                                                    * & ; ; ; ; % : ; ; w.                      ",
"                                                                                    o & & ; % , & ; ; & @                       ",
"                                                                                    @ r : % % % r ; ; d                         ",
"                                                                                      x , % ; ; : ; ; }                         ",
"                                                                                      @ e.& ; ; ; % , r.                        ",
"                                                                                          w.v % % t.#                           ",
"                                        y.c t u.e                                           1 w.N @                             ",
"                                  1 t.% ; ; ; & : t.r.                                                                          ",
"                                  M % ; ; ; ; : & % r i.                            8 i.p.X.                                    ",
"                                  a.; ; ; : ; ; ; % ; r 1                     s.r % 4 , 4 4 4 4 > d.h f.g.i.                    ",
"                                  r ; ; ; ; ; ; ; % % % h.                  j.v ; ; 4 4 , % ; ; ; ; % ; ; 0 n                   ",
"                                  k.; ; ; ; ; ; : , & % t                   l.% ; ; % % % % % % % % % ; % & , *.                ",
"                                  D ; ; ; ; ; % % ; : ; &                   * % % & % % % % % : : & % % & % % $ N               ",
"                                  p.& ; ; ; ; : ; ; % % ;                   $ : & $ % % ; % % % % % % ; t % & % y 1             ",
"                                  b : 0 ; ; ; % $ v & ; :                 6 , 4 % % ; ; ; ; & : & % % ; ; ; ; 4 & 5             ",
"                                  @ $ , 4 % ; & % ; ; % 2                 h & r % ; ; ; % ; ; ; ; ; ; % % ; ; c $ 4 8           ",
"                                    - & & & & & % : 2 1                   z.: : ; ; ; ; ; ; ; ; ; t % % , f & y > & 9           ",
"                                    8 x.z.g > g X 1                     1 r i % ; % % ; ; ; ; ; ; % ; % ; , : : & % n           ",
"                                                                        c.& % ; % % % % % % ; % % ; ; % ; f.1 v.r t 8           ",
"                                                                        b.& % % % ; % % % % % i % ; ; * i y                     ",
"                                                                        n.& % % , % % % ; & ; % ; ; % - , v                     ",
"                                                                        1 k.% v : ; ; ; % & % % % % 4 t & o                     ",
"                                                                          1 l.& % % % % % % % % % : & : j 1                     ",
"                                                                            @ n u.v : & % % % % : 4 c m.@                       ",
"                                                                                  1 w.m.M.M.h e                                 ",
"                                                                                                                                ",
"                                                                                                                                ",
"                                                                                                                                ",
"                                                                                                                                "
};
