/* XPM */
static char *f87f48cf289d466afcf0f664dd86c2e1iwTqZpIa1Wp9qIwA[] = {
/* columns rows colors chars-per-pixel */
"64 64 220 2 ",
"   c None",
".  c #0B531E",
"X  c #0A4916",
"o  c #374916",
"O  c #364F18",
"+  c #095F27",
"@  c #205F24",
"#  c #176B2D",
"$  c #186F30",
"%  c #117E3A",
"&  c #296725",
"*  c #366526",
"=  c #3C7628",
"-  c #367F36",
";  c #505518",
":  c #624F16",
">  c #51582C",
",  c #597837",
"<  c #586F2C",
"1  c #646D23",
"2  c #697F33",
"3  c #75782C",
"4  c #B52620",
"5  c #CD1B1E",
"6  c #D3251F",
"7  c #CC2423",
"8  c #D62D22",
"9  c #D73824",
"0  c #CF312C",
"q  c #E13A24",
"w  c #9D480B",
"e  c #AF5816",
"r  c #B35B13",
"t  c #A24D10",
"y  c #A86317",
"u  c #BA651B",
"i  c #BF7219",
"p  c #8C472C",
"a  c #8E5831",
"s  c #B24A26",
"d  c #B76922",
"f  c #AF7B2C",
"g  c #B37031",
"h  c #C56C17",
"j  c #C76E18",
"k  c #C27318",
"l  c #C9751D",
"z  c #DA5429",
"x  c #CC512A",
"c  c #ED4524",
"v  c #EC4C26",
"b  c #E74024",
"n  c #ED592C",
"m  c #C26926",
"M  c #CE7421",
"N  c #C5752C",
"B  c #D47B2A",
"V  c #C76F33",
"C  c #EE7837",
"Z  c #EB7130",
"A  c #D1484D",
"S  c #F17B62",
"D  c #EE7B62",
"F  c #29883D",
"G  c #3A893C",
"H  c #4F832A",
"J  c #44943F",
"K  c #678335",
"L  c #788A38",
"P  c #769B3C",
"I  c #79B43E",
"U  c #158942",
"Y  c #1C8C47",
"T  c #258B41",
"R  c #369644",
"E  c #2B9142",
"W  c #479C46",
"Q  c #4A9045",
"!  c #629444",
"~  c #47A648",
"^  c #56AA4A",
"/  c #5DB24C",
"(  c #53AA52",
")  c #66B84D",
"_  c #7CBA4C",
"`  c #74BB55",
"'  c #61AF4A",
"]  c #9B9B39",
"[  c #979137",
"{  c #8E842C",
"}  c #B1852E",
"|  c #83A937",
" . c #BBAA3B",
".. c #ABAE3A",
"X. c #C6822A",
"o. c #D58C26",
"O. c #D88B2A",
"+. c #DB942B",
"@. c #DA9A2F",
"#. c #C88835",
"$. c #DD8434",
"%. c #DC853B",
"&. c #CC9B34",
"*. c #E6932B",
"=. c #E8942A",
"-. c #E39D2F",
";. c #EB9A2D",
":. c #E78839",
">. c #E59531",
",. c #E49C30",
"<. c #E99A37",
"1. c #F49137",
"2. c #C7AA36",
"3. c #D9A334",
"4. c #C8B737",
"5. c #D4B437",
"6. c #ECA434",
"7. c #ECAA36",
"8. c #E9A739",
"9. c #F3AB36",
"0. c #F2AE38",
"q. c #F0A535",
"w. c #F5B33B",
"e. c #F9B63C",
"r. c #FAB83D",
"t. c #E5B738",
"y. c #96C33B",
"u. c #A4C93A",
"i. c #B5C737",
"p. c #919547",
"a. c #A39F45",
"s. c #99AA49",
"d. c #8BB84B",
"f. c #9FBB4E",
"g. c #96B14D",
"h. c #93BB52",
"j. c #A6AA4B",
"k. c #ABBD57",
"l. c #D8985A",
"z. c #E68E42",
"x. c #E89C42",
"c. c #E89646",
"v. c #F29646",
"b. c #DAA643",
"n. c #C7B744",
"m. c #D2B24D",
"M. c #ECA744",
"N. c #EBB34D",
"B. c #E7B749",
"V. c #FABC42",
"C. c #F3BE4D",
"Z. c #F4B248",
"A. c #E9A958",
"S. c #EDB25A",
"D. c #F2B755",
"F. c #DF9F64",
"G. c #F08976",
"H. c #EDB56C",
"J. c #F1B37B",
"K. c #F0B16D",
"L. c #87C147",
"P. c #A6C842",
"I. c #A2C353",
"U. c #B9CA4D",
"Y. c #80C260",
"T. c #CBCC46",
"R. c #CBCA48",
"E. c #D5D14A",
"W. c #DCD14F",
"Q. c #C7C955",
"!. c #D8C957",
"~. c #D0CA4D",
"^. c #EAC14E",
"/. c #FAC54D",
"(. c #F4C048",
"). c #E9CB57",
"_. c #F4CB55",
"`. c #FACB54",
"'. c #F3CB5E",
"]. c #FBCF59",
"[. c #F7C354",
"{. c #ECD35A",
"}. c #FAD25C",
"|. c #D6D26D",
" X c #FBD563",
".X c #FCDA66",
"XX c #FBDB6D",
"oX c #F7C170",
"OX c #FBE27E",
"+X c #76B985",
"@X c #91B193",
"#X c #F4AB9A",
"$X c #F3BDAF",
"%X c #9ED08C",
"&X c #A5D288",
"*X c #B8DDAC",
"=X c #F1CC98",
"-X c #F7D89C",
";X c #F5D18E",
":X c #FBE595",
">X c #F3E391",
",X c #F0E289",
"<X c #F3D5A7",
"1X c #F4DAB8",
"2X c #E9CDBA",
"3X c #D9E7A4",
"4X c #D9E6B9",
"5X c #EBE7A8",
"6X c #F8ECB5",
"7X c #F6EAAB",
"8X c #F7DCD4",
"9X c #D6EBCF",
"0X c #F6E6CD",
"qX c #F7E7C4",
"wX c #F8E1D7",
"eX c #FBF4DE",
"rX c #F8F3D7",
"tX c #EFF1D2",
"yX c #FAE7E2",
"uX c #FAF2E2",
/* pixels */
"                                                                                                                                ",
"                                                                                                                                ",
"                                                                                                                                ",
"                                                                                                                                ",
"                                                                                                                                ",
"                                                                                                                                ",
"                                                                                                                                ",
"                                                                                                                                ",
"                                                                                                                                ",
"                                                                                                                                ",
"                                                                                                                                ",
"                                                                                                                                ",
"                                                                                                                                ",
"                                                                                                                                ",
"                                                                                                                                ",
"                                                                                                                                ",
"                                                                  wXD S S #X                                                    ",
"                                                            qX5X5X-X1.q Z K.6X3X                                                ",
"                                                    yX8X8X9X|.R.E.{.W.z c._.C. .2X0XuX                                          ",
"                                                    G.q n ` E g.E.u.i.7. .&.v c 5 Z oX                                          ",
"                                                  A 7 8 n {.8.4.I W {.d.G 2 Z.5 5 } T.XX.XeX                                    ",
"                                                :X0 z 1.M.T.P H & * C V s f R.c.Z 2.u.I.e.rX                                    ",
"                                          9X4X7XW.a #.(.E.i.P K K 3 :.q q z &.U.]  ...^  .5XuX                                  ",
"                                          &XI.!.y.W I.W.u.y.5.^.{.!.!.9 0 9 z ) T ]  .R Y.Q.6X                                  ",
"                                          :Xk.U Y !. XQ./ U ^ ) ~ % X +./.z.4 Y . s.XX.X.Xd.*X                                  ",
"                                    rXU.` m.5.P.!.Q R ! 6.3.J $ . & ~.* | | Q {.!.(.V.V.(.{.Q.|.                                ",
"                                      3X` 2.4.d.I._ W F 1 1 s.s.[ } _.j.Q.Q.k.XX`./.7.o.V./.).,X                                ",
"                                  8X$X2Xp.b.n.) ~ i.g.! < < s.j.m.Z._.].].].].'.r.r.7.o.e.e.`.OXrX                              ",
"                                  #Xc c 0 c.U.( F W.[.[.[.1.G # L .X XV.e.w.0.e.r.r.r.r.r.r.`. XXX                              ",
"                                  #Xq 7 D.r.] G q.i.m 8 v v O p.].r.V.r.V.-.k r.e.r.r.r.V.r.q.8.XX                              ",
"                                    1XN.W = L ~.i.J p 5 8 v m.B.V.r.r.r.r.w.0.r.r.r.r.w.l 0.6.7.XX                              ",
"                                  rX:X~.] { [ f.H W , p 6 v.}.`.V.r.r.r.e.r.r.r.r.r.r.w.+.w.9.<.C.                              ",
"                                  5XT.P.V.t.n.f.1 f.J > s .X}.[.0.,.r.r.6.6.r.r.r.6.6.r.r.0.<.;.>.                              ",
"                                  3Xy./ ).R.n.).3._., ; u }.V.r.-.X.r.r.o.+.e.r.r.+.o.e.w.;.=.>.A.                              ",
"                                  3X| E ).C g ) U !.2 ,  XV.r.r.r.r.r.r.r.e.r.e.r.r.r.w.=.-.>.H.                                ",
"                                %X( F . @.Z n s U # : f .XV.r.r.r.r.r.V.r.r.w.k 0.r.9.=.=.1XuX                                  ",
"                                9X+XR s.x 9 s < . ; f M./.e.r.,.,.r.r.o.8.r.e.,.w.9.S.1X1X                                      ",
"                                  @XG [.g p > # ; f m./.e.e.r.,.,.r.r.o.7.V.e.9.9.H.<X                                          ",
"                                  @X; ,._ G $ O w './.e.w.V.r.r.r.r.r.r.e.e.Z.<.M.<X                                            ",
"                                J.$.j k i.= ; u t './.-.h e.r.e.r.r.r.r.r.9.M.                                                  ",
"                                l.j M z.y y N x.'.V.V.w.w.r.V.+.+.r.r.;.=.H.uX                                                  ",
"                                l.B $.B t u h N .XV.r.r.r.e.e.7.,.6.6.=X<XqX                                                    ",
"                                F.B :.B d r d X.[.V.7.7.r.r.w.0.D.H.H.                                                          ",
"                                J.$.l v.c.d #. X=.w.o.o.r.w.8.<.=X                                                              ",
"                                J.$.M c.M h @. X=.w.e.e.e.>.0X                                                                  ",
"                                ;XS.%.e h e #.}.=.=.;.;.M.0X                                                                    ",
"                                :XZ.$.N e X.b.M.*.*.H.=X<X                                                                      ",
"                                :XN.B %.e M.C.=.*.A.qX                                                                          ",
"                                :X'.z.j j N.C.*.>.uX                                                                            ",
"                                  6X'.l }.M.*.M.                                                                                ",
"                                    qX^./.-XqX0X                                                                                ",
"                                      6X<XeX                                                                                    ",
"                                                                                                                                ",
"                                                                                                                                ",
"                                                                                                                                ",
"                                                                                                                                ",
"                                                                                                                                ",
"                                                                                                                                ",
"                                                                                                                                ",
"                                                                                                                                ",
"                                                                                                                                ",
"                                                                                                                                ",
"                                                                                                                                ",
"                                                                                                                                "
};
