/* XPM */
static char *_89e6da766464a18c6687e32ebd00d09cd0uUK3TSMKbzlFd[] = {
/* columns rows colors chars-per-pixel */
"64 64 78 1 ",
"  c #783D00",
". c #7A430A",
"X c #805221",
"o c #7D4B16",
"O c #80501F",
"+ c #815323",
"@ c #7C4812",
"# c #783D01",
"$ c #805222",
"% c #794106",
"& c #7C4711",
"* c #794005",
"= c #7C4811",
"- c #805120",
"; c #7D4A14",
": c #7F4F1D",
"> c #7B450E",
", c #7D4914",
"< c #7D4B17",
"1 c #7D4913",
"2 c #7A430B",
"3 c #7B450D",
"4 c #793D00",
"5 c #7A3E00",
"6 c #7F4000",
"7 c #805121",
"8 c #4C2A27",
"9 c #21184E",
"0 c #623413",
"q c #7A4209",
"w c #68432B",
"e c #71431C",
"r c #563834",
"t c #412630",
"y c #67350E",
"u c #723A05",
"i c #5D3118",
"p c #7B460F",
"a c #68432C",
"s c #4E3031",
"d c #36213A",
"f c #311E3F",
"g c #6D380A",
"h c #663D22",
"j c #2C1F48",
"k c #3E293F",
"l c #5C3118",
"z c #512C22",
"x c #261A4A",
"c c #412631",
"v c #46282C",
"b c #572F1D",
"n c #261949",
"m c #2B1D44",
"M c #271A4B",
"N c #312042",
"B c #6E4628",
"V c #301E3F",
"C c #71441C",
"Z c #2C1C44",
"A c #764416",
"S c #3B2335",
"D c #7F501E",
"F c #7E4D19",
"G c #7A4D23",
"H c #4C2B27",
"J c #4A303A",
"K c #322245",
"L c #5F3924",
"P c #7A440B",
"I c #703E14",
"U c #7C4710",
"Y c #80511F",
"T c #7B440C",
"R c #7B460E",
"E c #793F04",
"W c #7E4D1A",
"Q c #7E4C18",
/* pixels */
"      .X                   oO                      +@           ",
"      #$                   oO                      +%           ",
"       $                   oO                      &            ",
"      *$                   oO                                   ",
"      =-                   oO                                   ",
"      ;-                   oO    :>                             ",
"      ,-                   oO    -@                             ",
"      ,-                   <-    -@                             ",
"      ,-                   oO    -@                             ",
"      ,-                   ;O    -@                             ",
"      ,-                   1-    -@                             ",
"      ,-                   &-    -@                             ",
"      ,-                   &-    -@                             ",
"      ,-                   &-    -@                             ",
"      ,-                   &-    -@                2            ",
"      ,-                   &-    -@               3-            ",
"      ,-                   &-    -@               >-            ",
"      ,-                   &-    -@               >-            ",
"      ,-                   &-    -@               >-         456",
"      ,-                   &-    -@               >7            ",
"      ,-                   &-    -@ 890           qX            ",
"      ,w98                 &-    -@ 890           .X            ",
"      ,w98                 &-    -@ 890           .X            ",
"      er9t00y    u00y      &-yi0y-@ 890 y00       paiy          ",
"      s99999d   89999fg    hj9999k@ 89lf999fu    zx999fy        ",
"      er9c00y  v9vyubnm   y9Mluulr@ 89nvyg89c   b9NBulnnu       ",
"      ,w98    g9c    b9b  V9C    -@ 89d    Vn   ZnA-  b9v       ",
"      ,w98    890     98  9S     -@ 89b    c9  g9v&-   9d       ",
"      ,w98    v99999999d 098     -@ 890    89  098&D   Vn       ",
"      ,w98    v9l000000y 098     -@ 890    89  098FO   Vn       ",
"      ,w98    89l         9d     -@ 890    89  g9c-o  u9d       ",
"      ,B98    g9d         d90    -@ 890    89   V9G@  z98       ",
"      ,-nnHHb  89fi00bd0  gnnH00bJ@ 890    89   09KL0H9Zu       ",
"      ,-yS99d   ln9999Vg   gV9999J= 890    89    0M999du        ",
"      ,-     *@   u00         00u$P               $I0           ",
"      ,-     &-                  $                $*            ",
"      ,-     =-                  $#               $*            ",
"      ,-     &-                  $.               $*            ",
"      ,-     @7                  -U               $*            ",
"      ,-     &-                  -@               $*            ",
"      1Y     @D                  -@               $*            ",
"      %T     -o                  -@               $*            ",
"             XR                  -=               $*            ",
"            E$                   -@               $*            ",
"            2X                   -@               -U            ",
"            R-                   -@               -@            ",
"            ,Y                   -@               -@            ",
"            W:     q:            -@               DR            ",
"            -1     #$            Dp                             ",
"            7>      $                                           ",
"            $E      $                                           ",
"           E$       $                                           ",
"           .X       $                                           ",
"           .X      E$                  P&                       ",
"           .X      T7                  1-                       ",
"           .-      &-                  3-                       ",
"           #*      =-                  .X                X%     ",
"                   &-                  *$                $.     ",
"                   &-                  *$                X3     ",
"                   &-                  *$                -@     ",
"                   &-                  *$                YQ     ",
"                   &-                  *$                ,-     ",
"                   &-                  *$                U-     ",
"                   &-                  *$                3-     "
};
