/* XPM */
static char *af490aa4f173497ab5a2fd7048e7824eN9uOPfOTcN5eqbgD[] = {
/* columns rows colors chars-per-pixel */
"64 64 31 1 ",
"  c None",
". c #57123A",
"X c #58123A",
"o c #730F31",
"O c #651035",
"+ c #20174D",
"@ c #20174E",
"# c #21174E",
"$ c #2E1649",
"% c #20184D",
"& c #21184D",
"* c #20184E",
"= c #21184E",
"- c #3C1544",
"; c #AB091D",
": c #AC091D",
"> c #8F0C27",
", c #810D2C",
"< c #900C27",
"1 c #9D0A22",
"2 c #D5040E",
"3 c #C70613",
"4 c #C80613",
"5 c #E3030A",
"6 c red",
"7 c #00FF0B",
"8 c #00FF0D",
"9 c #00FF0E",
"0 c #00FF0F",
"q c #00FF10",
"w c #00FF11",
/* pixels */
"                                                                ",
"                                                                ",
"                                                                ",
"                                                                ",
"                                                                ",
"                                                                ",
"                                                                ",
"                                                                ",
"                                                                ",
"                            wwwwwww                             ",
"                            wwwwwww                             ",
"                            wwwwwww                             ",
"                            wwwwwww                             ",
"                            wwwwwww                             ",
"                            wwwwwww                             ",
"                            wwwwwww                             ",
"                            wwwwwww                             ",
"                            wwwwwww                             ",
"                            wwwwwww                             ",
"                            wwwwwww                             ",
"                            wwwwwww                             ",
"                            wwwwwww                             ",
"                            wwwwwww                             ",
"                            wwwwwww                             ",
"                            wwwwwww                             ",
"                            wwwwwww                             ",
"                            wwwwwww                             ",
"                            wwwwwww                             ",
"                            wwwwwww                             ",
"                            wwwwwww                             ",
"                            wwwwwww                             ",
"                            wwwwwww                             ",
"                            wwwwwww                             ",
"                            wwwwwww                             ",
"                            wwwwwww                             ",
"                            wwwwwww                             ",
"                            wwwwwww                             ",
"                            wwwwwww                             ",
"                            wwwwwww                             ",
"                            wwwwwww                             ",
"                       wwwwwwwwwwwwwwwww                        ",
"                        wwwwwwwwwwwwwww                         ",
"                         wwwwwwwwwwwww                          ",
"                          wwwwwwwwwww                           ",
"                          wwwwwwwwwww                           ",
"                           wwwwwwwww                            ",
"                            wwwwwww                             ",
"                             wwwww                              ",
"                             wwwww                              ",
"                              www                               ",
"                               w                                ",
"      ==@==*=       @                                =          ",
"         =          @                                =          ",
"         =   @@=@   @    @@=@   ====@    @@@@   =@@=@@+=@       ",
"         =  @@   @  @   @   @@  =@  @=  @   ==  =@   =          ",
"         =  @    @  @  *@    @  =    =  @    =  =    =          ",
"         =  =@===*  @  =@=*=*=  =    = ==    =  =    =          ",
"         =  @       @  ==       =    =  @    =  =    =          ",
"         =  @@      @   @       =+  +=  @   ==  =    =          ",
"         =   @=@==  @    =+==@  ===++    @==*   =     @==       ",
"                                =                               ",
"                                =                               ",
"                                =                               ",
"                                                                "
};
