/* XPM */
static char *af490aa4f173497ab5a2fd7048e7824eN9uOPfOTcN5eqbgD[] = {
/* columns rows colors chars-per-pixel */
"64 64 31 1 ",
"  c None",
". c #57123A",
"X c #58123A",
"o c #730F31",
"O c #651035",
"+ c #20174D",
"@ c #20174E",
"# c #21174E",
"$ c #2E1649",
"% c #20184D",
"& c #21184D",
"* c #20184E",
"= c #21184E",
"- c #3C1544",
"; c #AB091D",
": c #AC091D",
"> c #8F0C27",
", c #810D2C",
"< c #900C27",
"1 c #9D0A22",
"2 c #D5040E",
"3 c #C70613",
"4 c #C80613",
"5 c #E3030A",
"6 c red",
"7 c #00FF0B",
"8 c #00FF0D",
"9 c #00FF0E",
"0 c #00FF0F",
"q c #00FF10",
"w c #00FF11",
/* pixels */
"                                                                ",
"                                                                ",
"                                                                ",
"                                                                ",
"                                                                ",
"                                                                ",
"                                                                ",
"                                                                ",
"                                                                ",
"                            wwwwwww                             ",
"                            wwwwwww                             ",
"                            wwwwwww                             ",
"                            wwwwwww                             ",
"                            wwwwwww                             ",
"                            wwwwwww                             ",
"                            wwwwwww                             ",
"                            wwwwwww                             ",
"                            wwwwwww                             ",
"                            wwwwwww                             ",
"                            wwwwwww                             ",
"                            wwwwwww                             ",
"               666666666666666666666666666666666                ",
"               6;<<<<;65<<:466663<<<<<365<<<<<;6                ",
"               6.-...,63=..--566>=....;63=....,6                ",
"               6.>666663=666-,66>=6666663=666666                ",
"               6.>666663=666O.66>=6666663=666666                ",
"               6.X<<<563=663$166>=<<<<563=<<<<36                ",
"               6..>>>563====,666>=>>>>563=>>>>36                ",
"               6.>666663=661$266>=6666663=666666                ",
"               6.>666663=666oX66>=6666663=666666                ",
"               6.>666663=6665=36>=6666663=666666                ",
"               6.>666663=6666oX6>=====.63=====.6                ",
"               666666666666666666666666666666666                ",
"                            wwwwwww                             ",
"                            wwwwwww                             ",
"                            wwwwwww                             ",
"                            wwwwwww                             ",
"                            wwwwwww                             ",
"                            wwwwwww                             ",
"                            wwwwwww                             ",
"                       wwwwwwwwwwwwwwwww                        ",
"                        wwwwwwwwwwwwwww                         ",
"                         wwwwwwwwwwwww                          ",
"                          wwwwwwwwwww                           ",
"                          wwwwwwwwwww                           ",
"                           wwwwwwwww                            ",
"                            wwwwwww                             ",
"                             wwwww                              ",
"                             wwwww                              ",
"                              www                               ",
"                               w                                ",
"      ==@==*=       @                                =          ",
"         =          @                                =          ",
"         =   @@=@   @    @@=@   ====@    @@@@   =@@=@@+=@       ",
"         =  @@   @  @   @   @@  =@  @=  @   ==  =@   =          ",
"         =  @    @  @  *@    @  =    =  @    =  =    =          ",
"         =  =@===*  @  =@=*=*=  =    = ==    =  =    =          ",
"         =  @       @  ==       =    =  @    =  =    =          ",
"         =  @@      @   @       =+  +=  @   ==  =    =          ",
"         =   @=@==  @    =+==@  ===++    @==*   =     @==       ",
"                                =                               ",
"                                =                               ",
"                                =                               ",
"                                                                "
};
